<svg width="64" height="64" viewBox="0 0 64 64" fill="none" xmlns="http://www.w3.org/2000/svg">
<path d="M44.9928 32.4372L46.2918 31.6872C47.7267 30.8587 49.5615 31.3503 50.3899 32.7852L56.3899 43.1775C57.2183 44.6124 56.7267 46.4472 55.2918 47.2756L42.2082 54.8294C41.207 55.4075 39.9626 55.3588 39.0096 54.7041L22.8051 43.5729C21.544 42.7066 21.2773 40.9549 22.2234 39.7525L22.3798 39.5538C23.1753 38.5428 24.6291 38.3443 25.6665 39.105L29.5775 41.9728C30.7703 42.8473 32.3089 41.468 31.5694 40.1872V40.1872L23.9444 26.9803C23.185 25.665 23.6357 23.9831 24.951 23.2237V23.2237C26.2663 22.4643 27.9482 22.915 28.7075 24.2303L32.5825 30.942M44.9928 32.4372L44.4928 31.5711C43.6644 30.1362 41.8296 29.6446 40.3947 30.473L38.6627 31.473M44.9928 32.4372L45.7428 33.7362M38.6627 31.473L38.4127 31.04C37.5842 29.6052 35.7495 29.1135 34.3146 29.942L32.5825 30.942M38.6627 31.473L40.6627 34.9372M32.5825 30.942L35.0825 35.2721" stroke="white" stroke-width="2" stroke-linecap="round"/>
<path d="M12.6101 30.3487L18.5376 26.9265M30.9314 19.7709L36.8588 16.3487M21.1567 17.1518L17.7345 11.2244M26.5865 16.437L28.3579 9.82576M17.8227 21.4967L11.2115 19.7253" stroke="orange" stroke-width="2" stroke-linecap="round"/>
</svg>
