<?xml version="1.0" standalone="no"?>
<!DOCTYPE svg PUBLIC "-//W3C//DTD SVG 20010904//EN"
 "http://www.w3.org/TR/2001/REC-SVG-20010904/DTD/svg10.dtd">
<svg version="1.0" xmlns="http://www.w3.org/2000/svg"
 width="650.000000pt" height="541.000000pt" viewBox="0 0 650.000000 541.000000"
 preserveAspectRatio="xMidYMid meet">

<g transform="translate(0.000000,541.000000) scale(0.100000,-0.100000)"
fill="#000000" stroke="none">
<path d="M5587 4473 c-4 -3 -7 -13 -7 -21 0 -7 -14 -33 -31 -57 -34 -47 -33
-75 1 -75 23 0 24 -1 8 -37 -13 -31 -47 -73 -59 -73 -4 0 -20 -5 -34 -10 -23
-9 -25 -13 -15 -25 7 -8 25 -15 40 -15 39 0 56 -23 41 -56 -6 -14 -20 -28 -31
-31 -11 -3 -20 -13 -20 -23 0 -10 -7 -20 -15 -24 -8 -3 -15 -12 -15 -20 0 -7
-15 -21 -32 -30 -18 -9 -48 -29 -67 -45 -32 -26 -35 -33 -34 -81 1 -55 19 -82
38 -56 6 7 15 11 22 9 6 -2 19 6 28 19 15 21 17 22 26 6 13 -24 36 -23 49 2
10 19 12 19 36 4 35 -23 28 -55 -13 -66 -18 -5 -33 -12 -33 -16 0 -17 -62 -44
-86 -38 -35 9 -92 -19 -136 -66 -35 -38 -40 -40 -70 -32 -23 7 -33 16 -33 30
-1 11 -8 31 -18 44 -9 13 -17 32 -17 41 0 16 -27 46 -34 38 -9 -10 -36 -69
-36 -78 0 -5 7 -11 15 -13 21 -4 -3 -50 -33 -63 -29 -13 -28 -21 3 -29 14 -4
25 -10 25 -15 0 -19 -46 -77 -75 -97 -22 -14 -31 -28 -33 -53 -4 -43 9 -57 39
-40 13 7 32 12 42 10 9 -1 17 3 17 10 0 8 4 8 15 -1 18 -15 20 -30 3 -30 -6 0
-19 -7 -29 -16 -23 -21 -69 -25 -76 -8 -12 33 -48 -2 -44 -43 3 -24 -19 -23
-35 1 -13 21 -20 24 -35 15 -10 -5 -19 -15 -19 -22 -1 -23 -27 -48 -45 -41
-13 5 -14 9 -3 15 16 10 19 52 4 61 -6 4 -16 27 -23 50 -6 25 -11 34 -12 21
-1 -12 -8 -26 -16 -31 -13 -6 -14 -14 -6 -34 8 -21 7 -28 -6 -32 -13 -5 -14
-9 -5 -18 18 -18 15 -24 -18 -38 -16 -7 -30 -16 -30 -20 0 -13 34 -22 38 -11
5 15 22 14 22 -2 0 -6 -16 -27 -35 -44 -40 -37 -42 -43 -15 -43 24 0 25 -8 3
-32 -12 -14 -14 -21 -6 -26 9 -5 6 -11 -7 -20 -17 -10 -21 -8 -35 17 -8 16
-20 31 -27 34 -8 3 -1 9 15 16 30 12 35 26 13 34 -9 4 -12 14 -9 26 3 13 -2
23 -15 30 -14 7 -18 17 -15 36 4 17 1 25 -8 25 -11 0 -11 2 1 10 12 8 12 10
-2 15 -9 4 -19 21 -22 40 -7 33 -31 63 -43 51 -3 -3 -7 -23 -9 -43 -1 -21 -2
-46 -3 -55 -1 -10 -16 -25 -33 -35 l-33 -17 30 -7 c28 -6 28 -7 5 -9 -25 -2
-25 -2 5 -15 29 -14 29 -14 5 -15 -14 0 -32 -5 -40 -10 -11 -7 -7 -10 17 -10
17 0 35 -4 38 -10 3 -5 2 -10 -4 -10 -5 0 -12 -9 -16 -19 -10 -33 -33 -33 -50
0 -17 32 -40 30 -32 -3 3 -11 -3 -26 -16 -38 -11 -11 -18 -23 -14 -26 4 -4 2
-13 -4 -21 -9 -10 -6 -13 12 -13 l24 -1 -24 -20 c-18 -15 -22 -23 -13 -28 16
-9 2 -50 -23 -71 -16 -14 -16 -15 9 -25 l26 -11 -27 -20 c-21 -16 -56 -24
-138 -32 -60 -6 -119 -11 -130 -10 -11 1 -40 1 -65 0 -39 -2 -48 -7 -67 -36
-26 -41 -95 -61 -168 -51 -42 7 -49 5 -75 -20 l-29 -28 -238 -1 c-283 -1 -365
5 -418 31 -22 11 -75 27 -118 37 -42 10 -84 25 -93 33 -10 11 -35 15 -87 15
-49 0 -88 6 -122 20 -43 17 -53 26 -62 56 -25 79 -35 98 -42 80 -9 -25 -33 -6
-33 26 0 36 -16 42 -30 12 -15 -34 -30 -33 -26 1 5 40 -15 38 -36 -4 -10 -21
-25 -50 -33 -65 -8 -15 -13 -33 -12 -40 4 -32 -3 -35 -92 -34 -85 0 -90 1 -85
20 5 20 -27 66 -46 66 -5 0 -16 7 -24 15 -14 13 -14 15 0 15 8 0 18 -5 21 -10
5 -8 11 -8 20 0 7 6 20 8 29 4 19 -7 20 -3 4 30 -6 14 -20 28 -32 31 -34 10
-66 28 -66 37 0 8 42 4 59 -6 5 -3 11 3 14 14 3 13 -6 31 -29 54 -37 38 -43
56 -19 56 8 0 15 5 15 10 0 6 -6 10 -14 10 -18 0 -30 31 -15 40 8 5 6 15 -6
34 -10 14 -19 26 -20 26 -6 0 -35 -63 -35 -76 0 -8 -11 -16 -25 -20 -13 -3
-30 -13 -36 -21 -13 -15 -8 -21 26 -37 6 -3 0 -13 -13 -22 -12 -9 -22 -25 -22
-36 0 -10 -9 -28 -20 -40 -11 -12 -20 -30 -20 -40 0 -19 15 -24 25 -8 3 6 12
10 18 10 21 -1 -34 -40 -56 -40 -12 0 -33 -12 -48 -26 -28 -26 -53 -26 -43 1
4 9 -3 18 -18 24 -12 5 -34 14 -48 20 -23 10 -23 11 7 5 28 -5 34 -2 44 20 10
21 15 23 35 16 24 -10 54 -4 54 10 0 15 -61 73 -78 75 -42 5 -79 20 -98 41
-16 17 -18 24 -9 28 7 2 21 -4 31 -15 27 -30 37 -23 31 23 -4 26 -14 48 -27
58 -12 9 -21 23 -20 31 6 38 -1 59 -19 59 -17 0 -31 18 -31 40 0 5 10 10 23
13 24 4 14 10 -38 22 -16 4 -25 9 -18 12 6 2 28 0 47 -5 38 -11 47 -7 39 14
-5 15 -58 44 -79 44 -8 0 -11 6 -8 15 4 8 -3 35 -15 60 -12 25 -21 56 -21 69
0 14 -4 27 -9 30 -11 7 -21 -17 -21 -49 0 -12 -7 -28 -15 -35 -17 -14 -20 -47
-4 -52 18 -6 -2 -36 -32 -47 -36 -12 -36 -19 -4 -31 14 -5 25 -13 25 -18 0 -4
-25 -34 -56 -65 -44 -46 -55 -64 -52 -85 2 -21 8 -26 23 -24 11 2 22 7 25 10
7 9 56 9 66 0 4 -4 -2 -11 -12 -14 -10 -4 -27 -14 -36 -21 -9 -8 -20 -13 -25
-10 -17 10 -72 -22 -87 -52 -9 -16 -16 -34 -16 -39 0 -13 93 -22 107 -10 7 5
20 8 30 5 16 -4 15 -6 -5 -12 -12 -4 -22 -14 -22 -21 0 -8 -8 -14 -19 -14 -10
0 -35 -15 -56 -34 -30 -28 -36 -39 -30 -58 4 -12 12 -26 18 -29 6 -4 1 -19
-12 -38 l-22 -31 30 0 c33 0 42 -14 15 -24 -35 -14 -66 -5 -95 27 l-30 32 40
5 c34 4 38 7 28 21 -7 9 -22 21 -35 28 -12 7 -20 16 -17 21 3 5 -7 16 -22 24
-21 11 -23 15 -10 16 10 0 15 5 12 10 -3 6 -1 10 5 10 6 0 -7 22 -29 48 -46
55 -49 62 -22 62 27 0 34 15 16 30 -8 7 -15 23 -15 35 0 13 -7 26 -16 29 -11
4 -14 13 -11 27 6 22 -47 149 -62 149 -13 0 -24 -31 -26 -73 -2 -51 -17 -65
-44 -38 -12 12 -25 21 -31 21 -5 0 -10 9 -10 21 0 13 -8 23 -20 26 -25 7 -61
76 -49 95 7 10 9 8 9 -6 0 -13 5 -17 19 -13 12 3 22 -1 25 -9 3 -8 12 -14 21
-14 17 0 20 11 5 26 -5 5 -10 24 -12 41 -1 17 -6 29 -11 26 -21 -13 -54 8 -64
42 -10 31 -9 34 3 24 8 -6 14 -18 14 -26 0 -19 34 -12 38 8 1 8 -14 33 -33 54
-41 43 -63 87 -46 93 14 5 14 32 1 32 -5 0 -10 8 -11 18 0 12 -3 10 -11 -8 -6
-14 -12 -32 -13 -40 -5 -43 -18 -61 -46 -67 -33 -6 -65 -45 -53 -64 5 -8 12
-4 25 12 10 13 21 20 25 16 4 -4 -12 -24 -35 -46 -28 -26 -39 -44 -35 -55 7
-18 29 -21 39 -6 4 6 11 8 16 4 6 -3 -8 -26 -31 -50 -25 -27 -40 -53 -40 -69
0 -33 16 -32 34 2 l14 27 -2 -33 c-1 -18 -9 -39 -19 -46 -9 -7 -17 -15 -17
-19 0 -4 -7 -14 -15 -22 -16 -17 -20 -60 -7 -68 5 -3 23 10 39 29 17 19 33 31
37 28 7 -7 -61 -73 -75 -73 -5 0 -10 -12 -10 -27 -2 -28 -2 -28 -6 -3 -3 14
-11 29 -19 33 -9 5 -12 16 -9 27 3 10 -3 34 -15 54 -11 20 -20 43 -20 51 0 23
-22 29 -33 9 -6 -10 -12 -34 -12 -52 -1 -18 -9 -40 -19 -50 -9 -9 -23 -25 -29
-35 -12 -18 -14 -18 -50 -1 -43 20 -57 45 -24 41 12 -1 25 -10 29 -19 12 -28
24 -21 38 21 17 51 8 75 -25 67 -36 -9 -49 21 -23 54 19 24 21 24 49 8 35 -20
47 -7 25 27 -11 16 -24 24 -39 22 -18 -2 -23 4 -25 27 -5 39 15 57 24 22 8
-35 28 -28 32 11 4 41 -39 77 -81 69 -25 -5 -27 -3 -22 14 5 15 1 22 -16 29
-23 8 -23 8 -3 19 16 8 26 8 40 -3 17 -11 23 -11 44 6 20 14 21 19 8 19 -9 0
-20 9 -23 20 -3 11 -12 20 -18 20 -7 0 -23 9 -37 20 -21 16 -22 22 -11 29 11
7 23 2 44 -15 49 -41 60 -32 26 22 -13 21 -29 34 -41 34 -12 0 -27 8 -34 18
-29 37 -9 43 36 10 34 -24 42 -22 33 10 -3 13 -13 22 -24 22 -10 0 -30 5 -44
12 -20 9 -25 18 -25 49 0 21 -4 41 -10 44 -5 3 -10 33 -10 66 0 33 -4 59 -10
59 -5 0 -10 -17 -10 -39 0 -70 -10 -99 -39 -109 -28 -10 -101 -70 -101 -84 0
-4 7 -8 15 -8 8 0 15 5 15 11 0 6 7 8 17 5 9 -4 20 -1 24 6 7 10 12 9 26 -5
15 -15 16 -19 3 -27 -8 -5 -18 -6 -23 -3 -5 3 -17 -4 -28 -16 -11 -12 -26 -21
-33 -21 -19 0 -40 -27 -27 -34 6 -4 8 -13 4 -21 -3 -8 0 -15 6 -15 6 0 11 6
11 14 0 9 12 16 33 18 23 2 32 8 31 20 -1 9 7 19 17 21 24 6 24 -10 1 -36 -16
-19 -16 -20 0 -14 10 4 18 4 18 0 0 -9 -50 -53 -60 -53 -5 0 -11 -9 -15 -19
-3 -10 -15 -21 -25 -24 -13 -3 -20 -14 -20 -28 0 -21 1 -21 18 -6 14 13 21 14
30 5 8 -8 14 -5 21 15 7 19 15 24 30 20 12 -3 21 -9 21 -15 0 -21 -34 -58 -54
-58 -12 0 -26 -4 -31 -9 -6 -5 -21 -11 -34 -13 -14 -1 -26 -9 -29 -16 -3 -9 3
-10 24 -2 34 13 39 8 14 -15 -11 -10 -20 -26 -20 -35 0 -10 -7 -20 -15 -24
-18 -7 -19 -23 -2 -59 12 -28 40 -38 35 -13 -3 14 37 56 53 56 4 0 9 10 11 22
4 28 36 36 45 12 5 -12 -3 -26 -27 -46 -19 -15 -31 -31 -27 -34 4 -4 13 -1 22
6 9 7 18 10 22 6 8 -7 -67 -75 -84 -76 -7 0 -13 -4 -13 -8 0 -4 -15 -13 -33
-20 -28 -11 -30 -14 -14 -23 9 -6 27 -7 39 -3 l21 6 -22 -23 c-11 -12 -21 -28
-21 -35 0 -7 -3 -14 -7 -16 -5 -1 -23 -22 -41 -46 -27 -35 -31 -46 -22 -57 14
-16 40 -20 40 -6 0 5 9 11 20 14 12 3 20 14 20 26 0 16 6 21 25 21 22 0 24 -3
19 -32 -4 -18 -13 -43 -20 -55 -19 -31 -18 -33 16 -33 35 0 39 -13 9 -34 -24
-17 -53 -58 -90 -129 -23 -45 -31 -52 -95 -77 l-69 -28 -3 -101 -3 -101 3251
0 3250 0 0 120 0 120 -56 0 c-46 0 -55 3 -50 15 3 9 0 15 -8 15 -14 0 -152
147 -145 154 2 2 47 -2 99 -10 52 -7 106 -13 120 -13 24 -1 23 1 -14 32 -34
29 -37 34 -22 46 19 16 12 31 -15 31 -11 0 -37 12 -59 26 -33 22 -38 29 -30
45 12 22 -14 42 -75 57 -22 6 -53 13 -70 18 l-30 7 30 7 c17 4 49 8 73 9 40 1
54 12 32 26 -17 10 -11 25 9 25 36 0 32 19 -15 57 -25 21 -55 56 -66 78 -11
22 -34 55 -50 73 -16 19 -27 39 -25 45 2 6 24 16 49 23 81 20 89 40 33 76 -35
23 -44 41 -25 53 14 9 13 68 -2 83 -7 7 -18 12 -25 12 -13 0 -101 61 -102 71
-1 3 17 11 39 18 33 10 40 16 40 36 0 14 -9 34 -20 45 -23 23 -25 30 -7 30 6
0 19 5 27 10 12 8 8 16 -24 43 -34 29 -38 38 -38 77 1 25 -6 55 -14 67 -8 13
-14 46 -14 78 0 60 -15 74 -25 23 -16 -80 -27 -108 -40 -108 -18 0 -55 -39
-55 -58 0 -8 9 -16 20 -19 15 -4 18 -11 13 -35 -4 -22 -2 -33 10 -39 23 -14
-1 -59 -36 -66 -40 -8 -44 -23 -13 -48 35 -28 31 -52 -13 -82 -42 -28 -66 -31
-53 -5 11 20 4 81 -10 100 -6 6 -21 12 -33 12 -28 0 -43 17 -51 58 -5 24 -3
33 10 37 50 16 49 18 -14 34 -74 19 -93 28 -87 44 5 17 90 15 104 -3 10 -12
15 -13 32 -3 17 11 22 10 31 -7 15 -28 32 -15 23 18 -8 32 -30 51 -60 52 -12
0 -24 4 -27 9 -3 5 -21 12 -40 15 -40 8 -47 20 -33 59 8 24 6 32 -17 56 -16
16 -26 38 -26 56 0 16 -10 44 -22 62 -22 32 -38 40 -51 26z m286 -806 c2 -7
-3 -22 -13 -34 l-17 -22 -23 24 c-23 25 -23 25 -2 25 11 0 24 5 27 10 9 14 22
13 28 -3z m-683 -107 c0 -4 -11 -5 -25 -2 -14 2 -25 8 -25 12 0 4 11 5 25 2
14 -2 25 -8 25 -12z m287 -37 c2 -5 -11 -14 -29 -19 -26 -8 -34 -16 -36 -37
-3 -24 -7 -27 -42 -27 -30 0 -43 -6 -64 -31 -33 -39 -51 -33 -51 16 0 32 -5
41 -29 54 -36 20 -35 34 5 44 32 8 99 -7 99 -24 0 -16 16 -10 54 20 29 23 42
28 63 22 15 -4 28 -12 30 -18z m-4637 2 c0 -8 -4 -15 -10 -15 -5 0 -7 7 -4 15
4 8 8 15 10 15 2 0 4 -7 4 -15z m106 -232 c-3 -3 -13 -3 -22 1 -13 5 -14 9 -3
22 11 14 13 14 22 -1 5 -9 6 -19 3 -22z m65 -13 c21 -12 25 -35 8 -46 -11 -6
-48 31 -49 49 0 10 18 9 41 -3z m3883 -25 c-4 -8 -10 -12 -15 -9 -14 8 -10 24
6 24 9 0 12 -6 9 -15z m132 -40 c-9 -7 -16 -18 -16 -26 0 -9 -3 -10 -11 -2
-16 16 6 54 28 46 15 -6 15 -7 -1 -18z m-3936 -15 c0 -11 -7 -20 -15 -20 -8 0
-15 -7 -15 -15 0 -9 -11 -21 -25 -27 -29 -13 -33 -28 -7 -28 28 0 32 -10 15
-36 -18 -28 -33 -31 -33 -8 0 9 -9 18 -20 21 -20 5 -28 23 -10 23 17 0 11 32
-7 46 -15 10 -16 15 -5 26 10 10 17 10 32 0 25 -16 40 -15 40 1 0 17 20 37 37
37 7 0 13 -9 13 -20z m-490 -10 c0 -5 -10 -10 -22 -10 -19 0 -20 2 -8 10 19
13 30 13 30 0z m134 -32 c-16 -18 -30 -35 -32 -37 -1 -3 -8 1 -14 7 -9 9 -9
12 1 12 8 0 24 11 37 25 13 14 26 25 30 25 4 0 -5 -15 -22 -32z m1249 -5 c-7
-2 -19 -2 -25 0 -7 3 -2 5 12 5 14 0 19 -2 13 -5z m2907 -43 c0 -5 -5 -10 -11
-10 -5 0 -7 5 -4 10 3 6 8 10 11 10 2 0 4 -4 4 -10z m-422 -48 c2 -7 -2 -10
-12 -6 -9 3 -16 11 -16 16 0 13 23 5 28 -10z m-3411 -28 c-3 -3 -12 -4 -19 -1
-8 3 -5 6 6 6 11 1 17 -2 13 -5z m3413 -28 c0 -3 -4 -8 -10 -11 -5 -3 -10 -1
-10 4 0 6 5 11 10 11 6 0 10 -2 10 -4z m197 -32 c-3 -3 -12 -4 -19 -1 -8 3 -5
6 6 6 11 1 17 -2 13 -5z m-2182 -64 c3 -5 1 -10 -4 -10 -6 0 -11 5 -11 10 0 6
2 10 4 10 3 0 8 -4 11 -10z m-625 -10 c0 -5 -8 -10 -17 -10 -15 0 -16 2 -3 10
19 12 20 12 20 0z m620 -20 c0 -5 -2 -10 -4 -10 -3 0 -8 5 -11 10 -3 6 -1 10
4 10 6 0 11 -4 11 -10z"/>
<path d="M1820 4039 c-14 -11 -41 -28 -61 -37 -42 -20 -109 -77 -109 -92 0
-13 26 -13 90 1 45 10 54 8 86 -10 45 -27 54 -27 25 0 -26 25 -23 43 8 47 25
4 40 30 23 41 -10 6 -18 31 -21 64 -1 12 -15 8 -41 -14z"/>
<path d="M1370 3883 c-19 -8 -53 -38 -75 -67 -23 -28 -62 -63 -89 -77 -26 -14
-63 -41 -82 -58 -18 -18 -38 -30 -43 -26 -9 5 -31 -23 -31 -39 0 -13 28 -5 34
10 3 8 9 13 14 10 4 -2 52 -2 105 2 53 4 97 5 97 2 0 -3 10 -16 21 -30 l20
-25 -18 34 c-26 49 -37 67 -51 83 -16 20 -5 28 40 28 l39 0 -20 26 c-18 23
-19 54 -2 54 3 0 23 16 44 35 21 19 42 35 48 35 5 0 9 5 9 10 0 13 -18 11 -60
-7z m-150 -224 c0 -4 -10 -6 -21 -4 -32 6 -34 13 -4 13 14 0 25 -4 25 -9z"/>
<path d="M3323 3781 l-43 -48 28 2 c39 3 56 9 64 20 5 6 8 3 8 -7 0 -9 6 -19
13 -22 6 -3 3 -4 -8 -1 -15 4 -21 0 -21 -14 0 -19 1 -19 29 1 25 18 27 22 13
30 -9 5 -16 20 -16 33 0 28 -9 55 -19 54 -3 -1 -25 -22 -48 -48z m15 -25 c-7
-8 -15 -12 -17 -11 -5 6 10 25 20 25 5 0 4 -6 -3 -14z"/>
<path d="M3133 3783 c-7 -2 -13 -21 -13 -40 0 -29 3 -33 13 -24 8 6 17 8 20 4
4 -3 12 -1 19 4 14 11 58 24 58 17 0 -3 -10 -9 -22 -14 -19 -8 -16 -9 12 -4
42 8 44 9 35 24 -16 26 -90 46 -122 33z m34 -39 c-3 -3 -12 -4 -19 -1 -8 3 -5
6 6 6 11 1 17 -2 13 -5z"/>
<path d="M1020 3630 c-8 -5 -12 -12 -9 -15 4 -3 12 1 19 10 14 17 11 19 -10 5z"/>
<path d="M1031 3594 c0 -11 3 -14 6 -6 3 7 2 16 -1 19 -3 4 -6 -2 -5 -13z"/>
<path d="M994 3555 c-18 -14 -18 -14 4 -8 12 3 22 9 22 14 0 12 -3 11 -26 -6z"/>
</g>
</svg>
