<svg width="102" height="200" viewBox="0 0 102 200" fill="none" xmlns="http://www.w3.org/2000/svg">
<g filter="url(#filter0_i_2_229)">
<path fill-rule="evenodd" clip-rule="evenodd" d="M59.7553 103.834C59.7553 103.834 54.743 111.11 51.0294 119.27C53.0007 120.597 54.106 121.341 56.0773 122.668C59.1346 115.084 64.4707 108.335 64.4707 108.335L59.7553 103.834Z" fill="#7879F1"/>
<path d="M68.1 103.651L64.1201 100.972C63.8251 100.773 63.4291 100.845 63.2356 101.133L59.7553 103.834L64.4707 108.335L68.2835 104.531C68.4771 104.243 68.3949 103.849 68.1 103.651Z" fill="#222325"/>
<path d="M68.1 103.651L64.1201 100.972C63.8251 100.773 63.4291 100.845 63.2356 101.133L59.7553 103.834L64.4707 108.335L68.2835 104.531C68.4771 104.243 68.3949 103.849 68.1 103.651Z" fill="black" fill-opacity="0.2"/>
<path d="M38.1231 133.05C38.8265 133.914 42.3293 136.518 43.8916 137.228C45.4539 137.939 47.6235 139.063 48.7252 138.366C48.7252 138.366 45.8396 134.813 43.469 133.121C41.2567 131.542 37.1593 129.955 37.1593 129.955C36.844 130.71 37.4196 132.186 38.1231 133.05Z" fill="#7879F1"/>
<path d="M45.7934 128.397L43.6456 127.073C41.2326 125.98 38.3926 127.664 37.5247 129.327C37.5247 129.327 37.2206 129.808 37.1593 129.955C37.1593 129.955 41.2567 131.542 43.469 133.121C45.8396 134.813 48.7252 138.366 48.7252 138.366C49.0987 138.129 50.4392 135.939 50.4392 135.939L52.2683 132.116C52.2683 132.116 54.5898 126.358 56.0773 122.668C54.106 121.341 53.0007 120.597 51.0294 119.27C49.2821 123.109 46.6779 128.235 46.6779 128.235C46.4843 128.523 46.0883 128.595 45.7934 128.397Z" fill="#63BDFF"/>
<path d="M46.8534 124.528C46.4366 125.373 46.0702 126.106 45.8023 126.64L44.4325 125.796C44.3784 125.762 44.3221 125.732 44.2642 125.706C42.5681 124.938 40.7968 125.18 39.4022 125.793C38.0539 126.386 36.8547 127.41 36.2254 128.576L36.2025 128.613C36.1708 128.664 36.1272 128.734 36.081 128.811L36.0765 128.818C36.012 128.925 35.8566 129.182 35.7754 129.377C35.397 130.282 35.6194 131.292 35.8377 131.94C36.0839 132.671 36.4879 133.417 36.9598 133.997C37.2365 134.337 37.6891 134.743 38.1409 135.12C38.6219 135.521 39.2004 135.969 39.7998 136.408C40.9645 137.26 42.3378 138.17 43.271 138.594C43.3948 138.65 43.5288 138.712 43.6707 138.778C44.3484 139.092 45.2082 139.49 46.0204 139.752C46.5215 139.914 47.0854 140.053 47.6527 140.08C48.2191 140.107 48.9024 140.028 49.5271 139.633C49.772 139.478 49.9555 139.272 50.0335 139.183C50.1422 139.059 50.2514 138.919 50.3523 138.784C50.5555 138.512 50.7762 138.189 50.9732 137.891C51.1724 137.59 51.3582 137.299 51.4935 137.084C51.5613 136.976 51.617 136.886 51.656 136.824L51.7014 136.75L51.7137 136.73L51.7171 136.724L51.718 136.723L51.7183 136.722L51.7184 136.722C51.7185 136.722 51.7185 136.722 50.4392 135.939L51.7185 136.722C51.7454 136.678 51.77 136.633 51.7922 136.586L53.6214 132.763C53.635 132.735 53.6477 132.706 53.6594 132.677L52.2683 132.116L53.6595 132.677L53.6596 132.677L53.6599 132.676L53.6611 132.673L53.6661 132.66L53.6859 132.611L53.7621 132.422L54.0454 131.719L55.0061 129.336L57.4684 123.229C58.9469 119.562 60.9891 116.069 62.6774 113.476C63.5187 112.184 64.2658 111.125 64.8009 110.392C65.0684 110.025 65.2825 109.74 65.4286 109.548C65.5016 109.453 65.5576 109.38 65.5947 109.332L65.5955 109.331L69.3428 105.593C69.4116 105.524 69.4736 105.449 69.5279 105.368C70.2037 104.364 69.8899 103.047 68.9375 102.406L64.9576 99.7272C64.0875 99.1415 62.8955 99.2619 62.1806 100.053L58.8357 102.649C58.714 102.743 58.6075 102.856 58.5201 102.983L59.7553 103.834C58.5201 102.983 58.52 102.983 58.5199 102.983L58.5196 102.984L58.5186 102.985L58.5153 102.99L58.5032 103.007L58.4581 103.074C58.4188 103.131 58.3614 103.216 58.2875 103.326C58.1397 103.546 57.9256 103.868 57.6577 104.279C57.122 105.1 56.3703 106.279 55.5016 107.716C53.7669 110.583 51.5537 114.497 49.6642 118.648C48.8004 120.546 47.7207 122.771 46.8534 124.528Z" stroke="#222325" stroke-width="3" stroke-linejoin="round"/>
<path d="M46.8534 124.528C46.4366 125.373 46.0702 126.106 45.8023 126.64L44.4325 125.796C44.3784 125.762 44.3221 125.732 44.2642 125.706C42.5681 124.938 40.7968 125.18 39.4022 125.793C38.0539 126.386 36.8547 127.41 36.2254 128.576L36.2025 128.613C36.1708 128.664 36.1272 128.734 36.081 128.811L36.0765 128.818C36.012 128.925 35.8566 129.182 35.7754 129.377C35.397 130.282 35.6194 131.292 35.8377 131.94C36.0839 132.671 36.4879 133.417 36.9598 133.997C37.2365 134.337 37.6891 134.743 38.1409 135.12C38.6219 135.521 39.2004 135.969 39.7998 136.408C40.9645 137.26 42.3378 138.17 43.271 138.594C43.3948 138.65 43.5288 138.712 43.6707 138.778C44.3484 139.092 45.2082 139.49 46.0204 139.752C46.5215 139.914 47.0854 140.053 47.6527 140.08C48.2191 140.107 48.9024 140.028 49.5271 139.633C49.772 139.478 49.9555 139.272 50.0335 139.183C50.1422 139.059 50.2514 138.919 50.3523 138.784C50.5555 138.512 50.7762 138.189 50.9732 137.891C51.1724 137.59 51.3582 137.299 51.4935 137.084C51.5613 136.976 51.617 136.886 51.656 136.824L51.7014 136.75L51.7137 136.73L51.7171 136.724L51.718 136.723L51.7183 136.722L51.7184 136.722C51.7185 136.722 51.7185 136.722 50.4392 135.939L51.7185 136.722C51.7454 136.678 51.77 136.633 51.7922 136.586L53.6214 132.763C53.635 132.735 53.6477 132.706 53.6594 132.677L52.2683 132.116L53.6595 132.677L53.6596 132.677L53.6599 132.676L53.6611 132.673L53.6661 132.66L53.6859 132.611L53.7621 132.422L54.0454 131.719L55.0061 129.336L57.4684 123.229C58.9469 119.562 60.9891 116.069 62.6774 113.476C63.5187 112.184 64.2658 111.125 64.8009 110.392C65.0684 110.025 65.2825 109.74 65.4286 109.548C65.5016 109.453 65.5576 109.38 65.5947 109.332L65.5955 109.331L69.3428 105.593C69.4116 105.524 69.4736 105.449 69.5279 105.368C70.2037 104.364 69.8899 103.047 68.9375 102.406L64.9576 99.7272C64.0875 99.1415 62.8955 99.2619 62.1806 100.053L58.8357 102.649C58.714 102.743 58.6075 102.856 58.5201 102.983L59.7553 103.834C58.5201 102.983 58.52 102.983 58.5199 102.983L58.5196 102.984L58.5186 102.985L58.5153 102.99L58.5032 103.007L58.4581 103.074C58.4188 103.131 58.3614 103.216 58.2875 103.326C58.1397 103.546 57.9256 103.868 57.6577 104.279C57.122 105.1 56.3703 106.279 55.5016 107.716C53.7669 110.583 51.5537 114.497 49.6642 118.648C48.8004 120.546 47.7207 122.771 46.8534 124.528Z" stroke="black" stroke-opacity="0.2" stroke-width="3" stroke-linejoin="round"/>
<path d="M47.7683 129.153C49.0266 130.47 49.4781 131.887 49.4781 131.887" stroke="#222325" stroke-width="3" stroke-linecap="round"/>
<path d="M47.7683 129.153C49.0266 130.47 49.4781 131.887 49.4781 131.887" stroke="black" stroke-opacity="0.2" stroke-width="3" stroke-linecap="round"/>
<path d="M50.749 119.115L56.4936 123.093" stroke="#222325" stroke-width="3" stroke-linecap="round"/>
<path d="M50.749 119.115L56.4936 123.093" stroke="black" stroke-opacity="0.2" stroke-width="3" stroke-linecap="round"/>
<path d="M36.677 129.934C40.179 131.08 45.2871 134.861 48.7789 138.59" stroke="#222325" stroke-width="3" stroke-linecap="round"/>
<path d="M36.677 129.934C40.179 131.08 45.2871 134.861 48.7789 138.59" stroke="black" stroke-opacity="0.2" stroke-width="3" stroke-linecap="round"/>
</g>
<g filter="url(#filter1_i_2_229)">
<path fill-rule="evenodd" clip-rule="evenodd" d="M68.9672 109.132C68.9672 109.132 64.9316 117.254 62.3437 126.084C64.5395 127.146 65.7706 127.741 67.9664 128.803C69.971 120.653 74.4121 113.02 74.4121 113.02L68.9672 109.132Z" fill="#7879F1"/>
<path d="M77.4191 107.733L72.9861 105.589C72.6576 105.43 72.2657 105.561 72.1109 105.882L68.9672 109.132L74.4121 113.02L77.7335 108.601C77.8884 108.28 77.7477 107.892 77.4191 107.733Z" fill="#222325"/>
<path d="M77.4191 107.733L72.9861 105.589C72.6576 105.43 72.2657 105.561 72.1109 105.882L68.9672 109.132L74.4121 113.02L77.7335 108.601C77.8884 108.28 77.7477 107.892 77.4191 107.733Z" fill="black" fill-opacity="0.2"/>
<path d="M50.9876 142.326C51.9277 143.106 56.1974 145.188 57.5059 145.821C58.8143 146.454 61.7587 146.689 62.7769 145.821C62.7769 145.821 59.3289 142.631 56.6744 141.256C54.1972 139.973 49.8034 138.956 49.8034 138.956C49.4995 140.127 50.0474 141.545 50.9876 142.326Z" fill="#7879F1"/>
<path d="M58.3497 136.118L55.9751 135.085C52.8486 134.385 50.2569 135.825 50.0834 138.265L49.9748 138.49C49.9012 138.642 49.8443 138.798 49.8034 138.956C49.8034 138.956 54.1972 139.973 56.6744 141.256C59.3289 142.631 62.7769 145.821 62.7769 145.821C63.1221 145.527 64.1659 143.106 64.1659 143.106L65.4689 138.956C65.4689 138.956 66.9911 132.768 67.9664 128.803C65.7706 127.741 64.5395 127.146 62.3437 126.084C61.1262 130.239 59.2249 135.825 59.2249 135.825C59.0701 136.146 58.6782 136.277 58.3497 136.118Z" fill="#63BDFF"/>
</g>
<path d="M58.9023 132.046C58.5943 132.986 58.3231 133.801 58.1274 134.385L56.5733 133.709C56.486 133.671 56.3953 133.642 56.3024 133.621C54.4512 133.207 52.639 133.399 51.2044 134.181C49.8291 134.93 48.8365 136.214 48.6189 137.848C48.5049 138.086 48.4159 138.331 48.3515 138.579C47.8813 140.392 48.7079 142.382 50.0294 143.48C50.3793 143.77 50.932 144.106 51.4766 144.416C52.0545 144.745 52.7373 145.108 53.4199 145.461C54.7867 146.168 56.1958 146.854 56.853 147.171C57.7607 147.61 59.0522 147.85 60.2073 147.883C60.8027 147.9 61.4274 147.865 62.0091 147.746C62.5654 147.632 63.2217 147.413 63.7502 146.962C63.9718 146.773 64.1256 146.541 64.1918 146.44C64.2835 146.299 64.3737 146.142 64.4562 145.991C64.6227 145.686 64.7996 145.326 64.9563 144.996C65.1149 144.661 65.2611 144.338 65.3673 144.1C65.4205 143.981 65.464 143.882 65.4944 143.812L65.5299 143.731L65.5394 143.709L65.5421 143.703L65.5428 143.701L65.543 143.701L65.5431 143.701C65.5432 143.7 65.5432 143.7 64.1659 143.106L65.5432 143.7C65.5636 143.653 65.5815 143.605 65.5969 143.556L66.9 139.405C66.9094 139.375 66.9179 139.345 66.9255 139.314L65.4689 138.956L66.9255 139.314L66.9255 139.314L66.9257 139.313L66.9266 139.31L66.9299 139.296L66.9428 139.244L66.9928 139.041L67.1785 138.286L67.8085 135.725L69.4229 129.161C70.3932 125.217 71.9619 121.368 73.3011 118.488C73.9686 117.052 74.5742 115.867 75.0116 115.043C75.2302 114.632 75.4065 114.311 75.5272 114.095C75.5875 113.986 75.6339 113.904 75.6647 113.85L75.6667 113.847L78.9325 109.502C78.9909 109.424 79.0416 109.341 79.0839 109.254C79.6148 108.156 79.1141 106.886 78.072 106.383L73.639 104.239C72.6861 103.778 71.5127 104.07 70.913 104.963L67.889 108.089C67.7819 108.2 67.6925 108.326 67.6239 108.464L68.9672 109.132C67.6239 108.464 67.6238 108.464 67.6237 108.465L67.6235 108.465L67.6227 108.467L67.62 108.472L67.6104 108.492L67.5742 108.565C67.5427 108.63 67.4967 108.724 67.4376 108.846C67.3195 109.091 67.1488 109.449 66.9364 109.906C66.5116 110.818 65.9193 112.125 65.2455 113.71C63.9 116.875 62.2204 121.171 60.9043 125.662C60.3022 127.716 59.5283 130.134 58.9023 132.046Z" stroke="#222325" stroke-width="3" stroke-linejoin="round"/>
<path d="M58.9023 132.046C58.5943 132.986 58.3231 133.801 58.1274 134.385L56.5733 133.709C56.486 133.671 56.3953 133.642 56.3024 133.621C54.4512 133.207 52.639 133.399 51.2044 134.181C49.8291 134.93 48.8365 136.214 48.6189 137.848C48.5049 138.086 48.4159 138.331 48.3515 138.579C47.8813 140.392 48.7079 142.382 50.0294 143.48C50.3793 143.77 50.932 144.106 51.4766 144.416C52.0545 144.745 52.7373 145.108 53.4199 145.461C54.7867 146.168 56.1958 146.854 56.853 147.171C57.7607 147.61 59.0522 147.85 60.2073 147.883C60.8027 147.9 61.4274 147.865 62.0091 147.746C62.5654 147.632 63.2217 147.413 63.7502 146.962C63.9718 146.773 64.1256 146.541 64.1918 146.44C64.2835 146.299 64.3737 146.142 64.4562 145.991C64.6227 145.686 64.7996 145.326 64.9563 144.996C65.1149 144.661 65.2611 144.338 65.3673 144.1C65.4205 143.981 65.464 143.882 65.4944 143.812L65.5299 143.731L65.5394 143.709L65.5421 143.703L65.5428 143.701L65.543 143.701L65.5431 143.701C65.5432 143.7 65.5432 143.7 64.1659 143.106L65.5432 143.7C65.5636 143.653 65.5815 143.605 65.5969 143.556L66.9 139.405C66.9094 139.375 66.9179 139.345 66.9255 139.314L65.4689 138.956L66.9255 139.314L66.9255 139.314L66.9257 139.313L66.9266 139.31L66.9299 139.296L66.9428 139.244L66.9928 139.041L67.1785 138.286L67.8085 135.725L69.4229 129.161C70.3932 125.217 71.9619 121.368 73.3011 118.488C73.9686 117.052 74.5742 115.867 75.0116 115.043C75.2302 114.632 75.4065 114.311 75.5272 114.095C75.5875 113.986 75.6339 113.904 75.6647 113.85L75.6667 113.847L78.9325 109.502C78.9909 109.424 79.0416 109.341 79.0839 109.254C79.6148 108.156 79.1141 106.886 78.072 106.383L73.639 104.239C72.6861 103.778 71.5127 104.07 70.913 104.963L67.889 108.089C67.7819 108.2 67.6925 108.326 67.6239 108.464L68.9672 109.132C67.6239 108.464 67.6238 108.464 67.6237 108.465L67.6235 108.465L67.6227 108.467L67.62 108.472L67.6104 108.492L67.5742 108.565C67.5427 108.63 67.4967 108.724 67.4376 108.846C67.3195 109.091 67.1488 109.449 66.9364 109.906C66.5116 110.818 65.9193 112.125 65.2455 113.71C63.9 116.875 62.2204 121.171 60.9043 125.662C60.3022 127.716 59.5283 130.134 58.9023 132.046Z" stroke="black" stroke-opacity="0.2" stroke-width="3" stroke-linejoin="round"/>
<path d="M60.2441 136.983C61.9247 137.802 62.8642 139.005 62.8642 139.005" stroke="#222325" stroke-width="3" stroke-linecap="round"/>
<path d="M60.2441 136.983C61.9247 137.802 62.8642 139.005 62.8642 139.005" stroke="black" stroke-opacity="0.2" stroke-width="3" stroke-linecap="round"/>
<path d="M35.866 91.0642C35.2032 95.1056 37.1888 96.0215 41.303 98.2946C45.4171 100.568 51.8221 105.372 60.7434 103.77C69.6647 102.169 73.3355 85.1595 73.3354 81.9707C73.3354 78.7819 69.1974 78.7603 67.2973 80.4711C65.3972 82.1818 63.4521 96.2663 57.9696 96.2663C52.4871 96.2663 49.8761 94.1887 47.9948 92.1513C47.9838 87.7748 44.8106 87.4725 43.7334 88.8577C40.1462 84.4587 36.3347 88.2064 35.866 91.0642Z" fill="#7879F1"/>
<path d="M35.866 91.0642C35.2032 95.1056 37.1888 96.0215 41.303 98.2946C45.4171 100.568 51.8221 105.372 60.7434 103.77C69.6647 102.169 73.3355 85.1595 73.3354 81.9707C73.3354 78.7819 69.1974 78.7603 67.2973 80.4711C65.3972 82.1818 63.4521 96.2663 57.9696 96.2663C52.4871 96.2663 49.8761 94.1887 47.9948 92.1513C47.9838 87.7748 44.8106 87.4725 43.7334 88.8577C40.1462 84.4587 36.3347 88.2064 35.866 91.0642Z" stroke="#222325" stroke-width="3" stroke-linecap="round" stroke-linejoin="round"/>
<path d="M35.866 91.0642C35.2032 95.1056 37.1888 96.0215 41.303 98.2946C45.4171 100.568 51.8221 105.372 60.7434 103.77C69.6647 102.169 73.3355 85.1595 73.3354 81.9707C73.3354 78.7819 69.1974 78.7603 67.2973 80.4711C65.3972 82.1818 63.4521 96.2663 57.9696 96.2663C52.4871 96.2663 49.8761 94.1887 47.9948 92.1513C47.9838 87.7748 44.8106 87.4725 43.7334 88.8577C40.1462 84.4587 36.3347 88.2064 35.866 91.0642Z" stroke="black" stroke-opacity="0.2" stroke-width="3" stroke-linecap="round" stroke-linejoin="round"/>
<path d="M58.8524 102.254L58.8694 102.26L66.6988 105.059C66.7182 105.066 66.7377 105.073 66.7574 105.079C67.4775 105.304 68.2203 105.549 68.9467 105.79C69.8392 106.085 70.7071 106.373 71.4784 106.602C72.9591 107.043 74.4327 107.388 75.9446 107.442C79.0806 107.555 82.0544 106.408 85.5825 103.232L85.6215 103.202C85.6736 103.161 85.7498 103.101 85.8471 103.024C86.0417 102.87 86.3206 102.649 86.6597 102.376C87.3373 101.833 88.2575 101.085 89.2257 100.273C90.1918 99.4616 91.2157 98.5769 92.0968 97.7599C92.9496 96.9692 93.7596 96.1598 94.2239 95.5173C95.9536 93.1237 97.1803 90.4036 97.8301 87.5219C97.8343 87.508 97.8393 87.4915 97.8449 87.4725C97.8505 87.4535 97.8569 87.4319 97.864 87.4079C97.8955 87.3007 97.9405 87.1455 97.9959 86.9489C98.1065 86.556 98.2586 85.997 98.4264 85.3264C98.7607 83.9904 99.1631 82.1881 99.4203 80.364C99.6824 78.5044 99.7726 76.1035 99.7012 73.9563C99.6653 72.8788 99.5879 71.8391 99.4648 70.9428C99.347 70.086 99.1709 69.2259 98.8805 68.5916L98.8726 68.5742C98.4837 67.7246 97.963 66.587 96.8804 65.5173C95.7882 64.4381 94.2277 63.5211 91.8757 62.8313L91.8678 62.8288L91.7802 62.8003C91.7043 62.7758 91.5946 62.7405 91.4572 62.6968C91.1826 62.6095 90.7965 62.4887 90.3492 62.3536C89.4614 62.0855 88.3058 61.7536 87.2966 61.5202C86.3616 61.304 85.7283 61.0702 85.3429 60.7723C85.0666 60.5586 84.8719 60.2902 84.8961 59.6653C84.9186 59.0822 85.0487 58.7073 85.2233 58.2039C85.3093 57.9561 85.4061 57.6771 85.5062 57.3268C85.6404 56.8571 85.7625 56.2555 85.6609 55.5768C85.5558 54.8756 85.2359 54.2398 84.7316 53.6481C84.3523 53.2031 83.8503 52.9651 83.4639 52.8271C83.0521 52.68 82.5978 52.5866 82.1529 52.5242C81.2611 52.3991 80.2193 52.374 79.225 52.3946C77.2358 52.4359 75.2018 52.6671 74.4412 52.7995C73.8465 52.903 71.8543 53.1564 69.5743 53.4463C69.4227 53.4655 69.2699 53.485 69.1161 53.5046C66.6938 53.8127 64.0737 54.1484 62.7438 54.3608C61.3474 54.5838 59.2935 55.08 57.1981 55.8476C55.1199 56.609 52.88 57.6809 51.2035 59.1071C48.5963 61.3252 46.6971 64.6453 45.8171 69.5034C44.9455 74.3147 45.3329 81.5599 46.1566 85.2742C46.2355 85.63 46.3139 85.9919 46.393 86.3571C46.6972 87.7612 47.0122 89.2158 47.4096 90.5705C47.9131 92.2873 48.5861 93.9871 49.6513 95.407C50.7455 96.8656 51.7242 98.1265 53.1189 99.2454C54.521 100.37 56.2658 101.293 58.8524 102.254Z" stroke="#222325" stroke-width="3" stroke-linejoin="round"/>
<path d="M58.8524 102.254L58.8694 102.26L66.6988 105.059C66.7182 105.066 66.7377 105.073 66.7574 105.079C67.4775 105.304 68.2203 105.549 68.9467 105.79C69.8392 106.085 70.7071 106.373 71.4784 106.602C72.9591 107.043 74.4327 107.388 75.9446 107.442C79.0806 107.555 82.0544 106.408 85.5825 103.232L85.6215 103.202C85.6736 103.161 85.7498 103.101 85.8471 103.024C86.0417 102.87 86.3206 102.649 86.6597 102.376C87.3373 101.833 88.2575 101.085 89.2257 100.273C90.1918 99.4616 91.2157 98.5769 92.0968 97.7599C92.9496 96.9692 93.7596 96.1598 94.2239 95.5173C95.9536 93.1237 97.1803 90.4036 97.8301 87.5219C97.8343 87.508 97.8393 87.4915 97.8449 87.4725C97.8505 87.4535 97.8569 87.4319 97.864 87.4079C97.8955 87.3007 97.9405 87.1455 97.9959 86.9489C98.1065 86.556 98.2586 85.997 98.4264 85.3264C98.7607 83.9904 99.1631 82.1881 99.4203 80.364C99.6824 78.5044 99.7726 76.1035 99.7012 73.9563C99.6653 72.8788 99.5879 71.8391 99.4648 70.9428C99.347 70.086 99.1709 69.2259 98.8805 68.5916L98.8726 68.5742C98.4837 67.7246 97.963 66.587 96.8804 65.5173C95.7882 64.4381 94.2277 63.5211 91.8757 62.8313L91.8678 62.8288L91.7802 62.8003C91.7043 62.7758 91.5946 62.7405 91.4572 62.6968C91.1826 62.6095 90.7965 62.4887 90.3492 62.3536C89.4614 62.0855 88.3058 61.7536 87.2966 61.5202C86.3616 61.304 85.7283 61.0702 85.3429 60.7723C85.0666 60.5586 84.8719 60.2902 84.8961 59.6653C84.9186 59.0822 85.0487 58.7073 85.2233 58.2039C85.3093 57.9561 85.4061 57.6771 85.5062 57.3268C85.6404 56.8571 85.7625 56.2555 85.6609 55.5768C85.5558 54.8756 85.2359 54.2398 84.7316 53.6481C84.3523 53.2031 83.8503 52.9651 83.4639 52.8271C83.0521 52.68 82.5978 52.5866 82.1529 52.5242C81.2611 52.3991 80.2193 52.374 79.225 52.3946C77.2358 52.4359 75.2018 52.6671 74.4412 52.7995C73.8465 52.903 71.8543 53.1564 69.5743 53.4463C69.4227 53.4655 69.2699 53.485 69.1161 53.5046C66.6938 53.8127 64.0737 54.1484 62.7438 54.3608C61.3474 54.5838 59.2935 55.08 57.1981 55.8476C55.1199 56.609 52.88 57.6809 51.2035 59.1071C48.5963 61.3252 46.6971 64.6453 45.8171 69.5034C44.9455 74.3147 45.3329 81.5599 46.1566 85.2742C46.2355 85.63 46.3139 85.9919 46.393 86.3571C46.6972 87.7612 47.0122 89.2158 47.4096 90.5705C47.9131 92.2873 48.5861 93.9871 49.6513 95.407C50.7455 96.8656 51.7242 98.1265 53.1189 99.2454C54.521 100.37 56.2658 101.293 58.8524 102.254Z" stroke="black" stroke-opacity="0.2" stroke-width="3" stroke-linejoin="round"/>
<mask id="mask0_2_229" style="mask-type:alpha" maskUnits="userSpaceOnUse" x="46" y="53" width="53" height="53">
<path d="M67.204 103.647L59.3746 100.847C54.37 98.9892 53.0418 97.4268 50.8513 94.5068C49.0329 92.0828 48.4071 88.4939 47.6211 84.9494C46.8351 81.4049 46.4614 74.3623 47.2932 69.7707C48.125 65.1791 49.8851 62.1982 52.1756 60.2495C55.1392 57.7282 60.3521 56.4578 62.9526 56.0424C65.553 55.6271 75.5721 54.311 75.5721 54.311C76.5967 54.1473 82.5305 53.3778 83.5901 54.621C85.0254 56.305 83.483 57.3911 83.3973 59.6072C83.3116 61.8233 85.0377 62.5374 86.9588 62.9816C88.8799 63.4258 91.4319 64.2642 91.4319 64.2642C95.8128 65.5433 96.7411 67.5212 97.5168 69.2158C98.2924 70.9103 98.4293 76.6491 97.9351 80.1545C97.4408 83.6598 96.3784 87.1409 96.3784 87.1409C95.7762 89.8439 94.6294 92.3953 93.0082 94.6387C91.5387 96.6723 84.6165 102.084 84.6165 102.084C77.9219 108.13 74.1335 105.808 67.204 103.647Z" fill="#EEEFFC"/>
</mask>
<g mask="url(#mask0_2_229)">
<ellipse cx="36.006" cy="34.7406" rx="36.006" ry="34.7406" transform="matrix(0.999253 0.0386367 -0.0386288 0.999254 42.9465 45.7256)" fill="#63BDFF"/>
<path d="M67.1991 103.778L59.3621 101.173C54.3525 99.4446 53.0198 98 50.8208 95.3013C48.9952 93.0608 48.3588 89.7501 47.5621 86.4798C46.7655 83.2095 46.3706 76.7153 47.1884 72.4844C48.0063 68.2535 49.7786 64.958 52.063 63.1683C55.0186 60.8526 59.2564 59.9686 62.2749 59.1454C65.2934 58.3222 71.2888 57.7506 73.4214 57.4145C75.554 57.0784 80.7999 57.0229 82.2401 58.58C83.2525 59.6745 82.2447 60.9515 82.4717 62.5582C82.6986 64.1648 84.855 65.4111 86.7772 65.8264C88.6994 66.2418 91.8359 67.056 91.8359 67.056C96.2201 68.2485 96.6238 70.5596 97.4045 72.1243C98.1852 73.689 98.3393 78.9804 97.8557 82.2108C97.3721 85.4411 96.3204 88.6474 96.3204 88.6474C95.7263 91.1377 94.5873 93.4866 92.9732 95.55C91.5099 97.4205 84.6049 102.389 84.6049 102.389C77.9293 107.943 74.1344 105.791 67.1991 103.778Z" fill="#C9CEF4"/>
<path d="M93.5957 91.3108C91.9003 95.2901 85.8314 100.256 80.9024 103.147C77.945 104.882 75.4969 104.83 71.4412 103.648C57.7221 99.6507 52.0542 96.7349 50.3755 90.3138C48.6969 83.8927 46.8712 74.2995 49.8275 72.0907C50.4261 71.6435 51.1852 71.2084 52.067 70.7929C64.89 64.7501 80.0189 67.4477 93.814 70.7097V70.7097C96.0229 71.232 97.2811 73.6366 97.151 77.0023C97.0209 80.368 95.291 87.3315 93.5957 91.3108Z" fill="#5D5FEF"/>
<g filter="url(#filter2_i_2_229)">
<path d="M93.5959 91.3108C91.9006 95.2901 85.8316 100.256 80.9026 103.147C77.9452 104.882 75.4971 104.83 71.4415 103.648C57.7224 99.6507 52.0544 96.7349 50.3758 90.3138C48.6971 83.8927 46.7037 73.1499 50.0313 71.8097C59.8484 67.085 74.2065 76.9819 79.6899 77.1939C85.1734 77.4059 88.8885 76.0087 92.4707 73.0654C96.0529 70.1221 97.2814 73.6366 97.1513 77.0023C97.0211 80.368 95.2913 87.3315 93.5959 91.3108Z" fill="#7879F1"/>
</g>
</g>
<path d="M70.0685 65.0093L79.6162 63.0106" stroke="#222325" stroke-width="2" stroke-linecap="round" stroke-linejoin="round"/>
<path d="M70.0685 65.0093L79.6162 63.0106" stroke="black" stroke-opacity="0.2" stroke-width="2" stroke-linecap="round" stroke-linejoin="round"/>
<path d="M55.6204 81.8391L60.1857 80.0933L56.5325 76.0768M70.4656 84.3998L66.4966 80.0933L71.3364 78.4388" stroke="#222325" stroke-width="2" stroke-linecap="round" stroke-linejoin="round"/>
<path d="M55.6204 81.8391L60.1857 80.0933L56.5325 76.0768M70.4656 84.3998L66.4966 80.0933L71.3364 78.4388" stroke="black" stroke-opacity="0.2" stroke-width="2" stroke-linecap="round" stroke-linejoin="round"/>
<path d="M59.9703 85.5944C59.9703 85.5944 61.3938 83.6028 62.7291 83.573C64.4294 83.535 65.7783 86.6828 65.7783 86.6828C65.7783 86.6828 65.7783 92.6227 62.7291 91.9696C60.9867 91.5964 59.7283 87.6158 59.9703 85.5944Z" stroke="#222325" stroke-width="2" stroke-linecap="round" stroke-linejoin="round"/>
<path d="M59.9703 85.5944C59.9703 85.5944 61.3938 83.6028 62.7291 83.573C64.4294 83.535 65.7783 86.6828 65.7783 86.6828C65.7783 86.6828 65.7783 92.6227 62.7291 91.9696C60.9867 91.5964 59.7283 87.6158 59.9703 85.5944Z" stroke="black" stroke-opacity="0.2" stroke-width="2" stroke-linecap="round" stroke-linejoin="round"/>
<path d="M58.5798 96.7304C60.1216 91.0767 58.5798 86.5513 54.5946 84.2023H23.8902C14.2541 92.2331 23.2477 116.326 31.2778 112.471C37.7018 109.387 52.1558 100.692 58.5798 96.7304Z" fill="#63BDFF"/>
<path d="M25.634 85.6479C34.6314 85.8674 36.6064 101.889 32.6563 109.57" stroke="#222325" stroke-width="3" stroke-linecap="round"/>
<path d="M25.634 85.6479C34.6314 85.8674 36.6064 101.889 32.6563 109.57" stroke="black" stroke-opacity="0.2" stroke-width="3" stroke-linecap="round"/>
<g filter="url(#filter3_i_2_229)">
<path d="M55.1815 98.4872C54.5186 102.529 56.5042 103.445 60.6184 105.718C64.7326 107.991 71.1376 112.795 80.0588 111.193C88.9801 109.592 92.6509 92.5825 92.6509 89.3937C92.6508 86.2049 88.5128 86.1833 86.6127 87.8941C84.7126 89.6048 82.7675 103.689 77.285 103.689C71.8025 103.689 69.1916 101.612 67.3102 99.5743C67.2992 95.1978 64.126 94.8955 63.0488 96.2807C59.4616 91.8817 55.6502 95.6294 55.1815 98.4872Z" fill="#7879F1"/>
</g>
<path d="M55.1815 98.4872C54.5186 102.529 56.5042 103.445 60.6184 105.718C64.7326 107.991 71.1376 112.795 80.0588 111.193C88.9801 109.592 92.6509 92.5825 92.6509 89.3937C92.6508 86.2049 88.5128 86.1833 86.6127 87.8941C84.7126 89.6048 82.7675 103.689 77.285 103.689C71.8025 103.689 69.1916 101.612 67.3102 99.5743C67.2992 95.1978 64.126 94.8955 63.0488 96.2807C59.4616 91.8817 55.6502 95.6294 55.1815 98.4872Z" stroke="#222325" stroke-width="3" stroke-linecap="round" stroke-linejoin="round"/>
<path d="M55.1815 98.4872C54.5186 102.529 56.5042 103.445 60.6184 105.718C64.7326 107.991 71.1376 112.795 80.0588 111.193C88.9801 109.592 92.6509 92.5825 92.6509 89.3937C92.6508 86.2049 88.5128 86.1833 86.6127 87.8941C84.7126 89.6048 82.7675 103.689 77.285 103.689C71.8025 103.689 69.1916 101.612 67.3102 99.5743C67.2992 95.1978 64.126 94.8955 63.0488 96.2807C59.4616 91.8817 55.6502 95.6294 55.1815 98.4872Z" stroke="black" stroke-opacity="0.2" stroke-width="3" stroke-linecap="round" stroke-linejoin="round"/>
<path d="M16.7798 91.6602C17.0815 90.9856 15.5139 90.3362 10.108 88.8714C4.38469 87.3246 3.06587 87.1917 3.00153 88.076C2.928 89.2932 16.2637 92.7387 16.7798 91.6602Z" fill="#222325"/>
<path d="M16.7798 91.6602C17.0815 90.9856 15.5139 90.3362 10.108 88.8714C4.38469 87.3246 3.06587 87.1917 3.00153 88.076C2.928 89.2932 16.2637 92.7387 16.7798 91.6602Z" fill="black" fill-opacity="0.2"/>
<path d="M12.0099 117.403C14.0875 118.16 14.4844 117.901 17.5012 113.834C20.6215 109.635 21.0421 108.758 20.3038 108.108C18.9605 106.935 17.7779 107.782 13.6595 112.782C10.6231 116.472 10.4763 116.845 12.0099 117.403Z" fill="#222325"/>
<path d="M12.0099 117.403C14.0875 118.16 14.4844 117.901 17.5012 113.834C20.6215 109.635 21.0421 108.758 20.3038 108.108C18.9605 106.935 17.7779 107.782 13.6595 112.782C10.6231 116.472 10.4763 116.845 12.0099 117.403Z" fill="black" fill-opacity="0.2"/>
<path d="M3.12522 106.075C4.61196 106.639 5.26422 106.541 7.67041 105.411C14.7953 102.033 20.1526 100.185 17.2366 99.1451C16.0494 98.7127 14.6601 99.204 6.19463 102.878C1.52454 104.932 1.14111 105.308 3.12522 106.075Z" fill="#222325"/>
<path d="M3.12522 106.075C4.61196 106.639 5.26422 106.541 7.67041 105.411C14.7953 102.033 20.1526 100.185 17.2366 99.1451C16.0494 98.7127 14.6601 99.204 6.19463 102.878C1.52454 104.932 1.14111 105.308 3.12522 106.075Z" fill="black" fill-opacity="0.2"/>
<defs>
<filter id="filter0_i_2_229" x="31.071" y="94.8609" width="40.3196" height="46.7241" filterUnits="userSpaceOnUse" color-interpolation-filters="sRGB">
<feFlood flood-opacity="0" result="BackgroundImageFix"/>
<feBlend mode="normal" in="SourceGraphic" in2="BackgroundImageFix" result="shape"/>
<feColorMatrix in="SourceAlpha" type="matrix" values="0 0 0 0 0 0 0 0 0 0 0 0 0 0 0 0 0 0 127 0" result="hardAlpha"/>
<feOffset dx="-5" dy="-17"/>
<feGaussianBlur stdDeviation="1.5"/>
<feComposite in2="hardAlpha" operator="arithmetic" k2="-1" k3="1"/>
<feColorMatrix type="matrix" values="0 0 0 0 0.141667 0 0 0 0 0.170204 0 0 0 0 0.425 0 0 0 0.34 0"/>
<feBlend mode="darken" in2="shape" result="effect1_innerShadow_2_229"/>
</filter>
<filter id="filter1_i_2_229" x="43.7175" y="99.5235" width="37.082" height="49.8638" filterUnits="userSpaceOnUse" color-interpolation-filters="sRGB">
<feFlood flood-opacity="0" result="BackgroundImageFix"/>
<feBlend mode="normal" in="SourceGraphic" in2="BackgroundImageFix" result="shape"/>
<feColorMatrix in="SourceAlpha" type="matrix" values="0 0 0 0 0 0 0 0 0 0 0 0 0 0 0 0 0 0 127 0" result="hardAlpha"/>
<feOffset dx="-5" dy="-17"/>
<feGaussianBlur stdDeviation="1.5"/>
<feComposite in2="hardAlpha" operator="arithmetic" k2="-1" k3="1"/>
<feColorMatrix type="matrix" values="0 0 0 0 0.141667 0 0 0 0 0.170204 0 0 0 0 0.425 0 0 0 0.34 0"/>
<feBlend mode="darken" in2="shape" result="effect1_innerShadow_2_229"/>
</filter>
<filter id="filter2_i_2_229" x="45.2314" y="67.5332" width="51.929" height="36.9647" filterUnits="userSpaceOnUse" color-interpolation-filters="sRGB">
<feFlood flood-opacity="0" result="BackgroundImageFix"/>
<feBlend mode="normal" in="SourceGraphic" in2="BackgroundImageFix" result="shape"/>
<feColorMatrix in="SourceAlpha" type="matrix" values="0 0 0 0 0 0 0 0 0 0 0 0 0 0 0 0 0 0 127 0" result="hardAlpha"/>
<feOffset dx="-6" dy="-14"/>
<feGaussianBlur stdDeviation="1.5"/>
<feComposite in2="hardAlpha" operator="arithmetic" k2="-1" k3="1"/>
<feColorMatrix type="matrix" values="0 0 0 0 0.321569 0 0 0 0 0.376471 0 0 0 0 0.866667 0 0 0 0.6 0"/>
<feBlend mode="normal" in2="shape" result="effect1_innerShadow_2_229"/>
</filter>
<filter id="filter3_i_2_229" x="50.5559" y="82.2618" width="43.595" height="30.7501" filterUnits="userSpaceOnUse" color-interpolation-filters="sRGB">
<feFlood flood-opacity="0" result="BackgroundImageFix"/>
<feBlend mode="normal" in="SourceGraphic" in2="BackgroundImageFix" result="shape"/>
<feColorMatrix in="SourceAlpha" type="matrix" values="0 0 0 0 0 0 0 0 0 0 0 0 0 0 0 0 0 0 127 0" result="hardAlpha"/>
<feOffset dx="-5" dy="-17"/>
<feGaussianBlur stdDeviation="1.5"/>
<feComposite in2="hardAlpha" operator="arithmetic" k2="-1" k3="1"/>
<feColorMatrix type="matrix" values="0 0 0 0 0.321569 0 0 0 0 0.376471 0 0 0 0 0.866667 0 0 0 0.6 0"/>
<feBlend mode="normal" in2="shape" result="effect1_innerShadow_2_229"/>
</filter>
</defs>
</svg>
