<svg width="160" height="181" viewBox="0 0 160 181" fill="none" xmlns="http://www.w3.org/2000/svg">
<line x1="4.06958" y1="175.111" x2="93.063" y2="175.111" stroke="#222325" stroke-width="8" stroke-linecap="round"/>
<line x1="4.06958" y1="175.111" x2="93.063" y2="175.111" stroke="black" stroke-opacity="0.2" stroke-width="8" stroke-linecap="round"/>
<path d="M30.2096 147.287C25.1538 149.465 21.7833 155.006 20.4045 163.912C19.0257 172.819 23.6675 177.379 30.2553 177.379H43.7167L40.0148 154.808C40.0148 154.808 37.104 146.496 30.2096 147.287Z" fill="#222325"/>
<path d="M30.2096 147.287C25.1538 149.465 21.7833 155.006 20.4045 163.912C19.0257 172.819 23.6675 177.379 30.2553 177.379H43.7167L40.0148 154.808C40.0148 154.808 37.104 146.496 30.2096 147.287Z" fill="black" fill-opacity="0.2"/>
<path d="M30.2096 147.287C25.1538 149.465 21.7833 155.006 20.4045 163.912C19.0257 172.819 23.6675 177.379 30.2553 177.379H43.7167L40.0148 154.808C40.0148 154.808 37.104 146.496 30.2096 147.287Z" stroke="#222325" stroke-width="5" stroke-linejoin="round"/>
<path d="M30.2096 147.287C25.1538 149.465 21.7833 155.006 20.4045 163.912C19.0257 172.819 23.6675 177.379 30.2553 177.379H43.7167L40.0148 154.808C40.0148 154.808 37.104 146.496 30.2096 147.287Z" stroke="black" stroke-opacity="0.2" stroke-width="5" stroke-linejoin="round"/>
<path d="M50.8873 147.287C45.0137 149.465 41.0979 155.006 39.4961 163.912C37.8942 172.819 43.2869 177.379 50.9405 177.379H66.5794L62.2787 154.808C62.2787 154.808 58.897 146.496 50.8873 147.287Z" fill="#222325"/>
<path d="M50.8873 147.287C45.0137 149.465 41.0979 155.006 39.4961 163.912C37.8942 172.819 43.2869 177.379 50.9405 177.379H66.5794L62.2787 154.808C62.2787 154.808 58.897 146.496 50.8873 147.287Z" fill="black" fill-opacity="0.2"/>
<path d="M50.8873 147.287C45.0137 149.465 41.0979 155.006 39.4961 163.912C37.8942 172.819 43.2869 177.379 50.9405 177.379H66.5794L62.2787 154.808C62.2787 154.808 58.897 146.496 50.8873 147.287Z" stroke="#222325" stroke-width="5" stroke-linejoin="round"/>
<path d="M50.8873 147.287C45.0137 149.465 41.0979 155.006 39.4961 163.912C37.8942 172.819 43.2869 177.379 50.9405 177.379H66.5794L62.2787 154.808C62.2787 154.808 58.897 146.496 50.8873 147.287Z" stroke="black" stroke-opacity="0.2" stroke-width="5" stroke-linejoin="round"/>
<g filter="url(#filter0_i_2_200)">
<path d="M25.4998 142.775C19.7528 144.105 16.0042 157.213 16.0042 166.49C16.0041 175.768 22.4649 174.934 29.5042 174.934C35.2276 174.934 36.3699 169.822 34.3994 164.33L38.0287 168.258L39.2133 153.178C39.2133 153.178 32.8666 141.934 25.4998 142.775Z" fill="white"/>
</g>
<path d="M27.3678 154.708C30.6969 157.284 33.1619 160.882 34.3994 164.33M34.3994 164.33C36.3699 169.822 35.2276 174.934 29.5042 174.934C22.4649 174.934 16.0041 175.768 16.0042 166.49C16.0042 157.213 19.7528 144.105 25.4998 142.775C32.8666 141.934 39.2133 153.178 39.2133 153.178L38.0288 168.258L34.3994 164.33Z" stroke="#222325" stroke-width="5" stroke-linecap="round" stroke-linejoin="round"/>
<path d="M27.3678 154.708C30.6969 157.284 33.1619 160.882 34.3994 164.33M34.3994 164.33C36.3699 169.822 35.2276 174.934 29.5042 174.934C22.4649 174.934 16.0041 175.768 16.0042 166.49C16.0042 157.213 19.7528 144.105 25.4998 142.775C32.8666 141.934 39.2133 153.178 39.2133 153.178L38.0288 168.258L34.3994 164.33Z" stroke="black" stroke-opacity="0.2" stroke-width="5" stroke-linecap="round" stroke-linejoin="round"/>
<path d="M50.2683 146.247C44.3585 148.404 40.4187 153.894 38.8071 162.716C37.1954 171.539 42.5677 177.032 50.2683 177.032C60.4612 177.032 53.7369 165.538 50.2683 160.833L60.1179 173.892L61.7297 153.698C61.7297 153.698 58.3272 145.463 50.2683 146.247Z" fill="white"/>
<path d="M50.2683 146.247C44.3585 148.404 40.4187 153.894 38.8071 162.716C37.1954 171.539 42.5677 177.032 50.2683 177.032C60.4612 177.032 53.7369 165.538 50.2683 160.833L60.1179 173.892L61.7297 153.698C61.7297 153.698 58.3272 145.463 50.2683 146.247Z" stroke="#222325" stroke-width="5" stroke-linejoin="round"/>
<path d="M50.2683 146.247C44.3585 148.404 40.4187 153.894 38.8071 162.716C37.1954 171.539 42.5677 177.032 50.2683 177.032C60.4612 177.032 53.7369 165.538 50.2683 160.833L60.1179 173.892L61.7297 153.698C61.7297 153.698 58.3272 145.463 50.2683 146.247Z" stroke="black" stroke-opacity="0.2" stroke-width="5" stroke-linejoin="round"/>
<g filter="url(#filter1_i_2_200)">
<path fill-rule="evenodd" clip-rule="evenodd" d="M41.8285 142.245L41.4084 166.453C41.328 171.085 42.2729 175.216 46.6157 175.537V175.537C49.7704 175.77 52.2395 171.116 52.2953 167.752L52.7115 142.643L41.8285 142.245Z" fill="#707EFF"/>
<path d="M51.7373 131.915L43.1214 133.747C42.4829 133.883 41.9567 134.509 41.9462 135.145L41.8285 142.245L52.7115 142.643L52.8743 132.822C52.8849 132.185 52.3758 131.78 51.7373 131.915Z" fill="#222325"/>
<path d="M51.7373 131.915L43.1214 133.747C42.4829 133.883 41.9567 134.509 41.9462 135.145L41.8285 142.245L52.7115 142.643L52.8743 132.822C52.8849 132.185 52.3758 131.78 51.7373 131.915Z" fill="black" fill-opacity="0.2"/>
</g>
<path d="M39.3831 142.765L38.963 166.971C38.9205 169.42 39.1351 172.025 40.1051 174.109C41.1247 176.299 42.968 177.866 45.9166 178.084C48.8194 178.298 51.1751 176.174 52.541 174.09C53.8989 172.017 54.704 169.443 54.7406 167.232L55.1569 142.123L55.3197 132.302C55.3541 130.225 53.7085 129.006 51.7788 129.416L43.1628 131.248C41.233 131.658 39.5352 133.588 39.5008 135.665L39.3831 142.764L39.3831 142.765Z" stroke="#222325" stroke-width="5" stroke-linejoin="round"/>
<path d="M39.3831 142.765L38.963 166.971C38.9205 169.42 39.1351 172.025 40.1051 174.109C41.1247 176.299 42.968 177.866 45.9166 178.084C48.8194 178.298 51.1751 176.174 52.541 174.09C53.8989 172.017 54.704 169.443 54.7406 167.232L55.1569 142.123L55.3197 132.302C55.3541 130.225 53.7085 129.006 51.7788 129.416L43.1628 131.248C41.233 131.658 39.5352 133.588 39.5008 135.665L39.3831 142.764L39.3831 142.765Z" stroke="black" stroke-opacity="0.2" stroke-width="5" stroke-linejoin="round"/>
<g filter="url(#filter2_i_2_200)">
<path fill-rule="evenodd" clip-rule="evenodd" d="M60.6439 142.28L60.2238 166.487C60.1434 171.12 61.0884 175.25 65.4311 175.571V175.571C68.5859 175.804 71.0549 171.151 71.1107 167.786L71.5269 142.677L60.6439 142.28Z" fill="#707EFF"/>
<path d="M70.5528 131.95L61.9368 133.782C61.2983 133.918 60.7721 134.543 60.7616 135.18L60.6439 142.28L71.5269 142.677L71.6898 132.856C71.7003 132.22 71.1913 131.814 70.5528 131.95Z" fill="#222325"/>
<path d="M70.5528 131.95L61.9368 133.782C61.2983 133.918 60.7721 134.543 60.7616 135.18L60.6439 142.28L71.5269 142.677L71.6898 132.856C71.7003 132.22 71.1913 131.814 70.5528 131.95Z" fill="black" fill-opacity="0.2"/>
</g>
<path d="M58.1985 142.8L57.7785 167.005C57.736 169.454 57.9505 172.06 58.9206 174.143C59.9402 176.333 61.7835 177.901 64.732 178.118C67.6348 178.333 69.9905 176.209 71.3564 174.124C72.7143 172.051 73.5194 169.478 73.5561 167.266L73.9723 142.157L74.1351 132.336C74.1696 130.26 72.524 129.04 70.5942 129.45L61.9782 131.282C60.0485 131.693 58.3507 133.623 58.3162 135.7L58.1985 142.799L58.1985 142.8Z" stroke="#222325" stroke-width="5" stroke-linejoin="round"/>
<path d="M58.1985 142.8L57.7785 167.005C57.736 169.454 57.9505 172.06 58.9206 174.143C59.9402 176.333 61.7835 177.901 64.732 178.118C67.6348 178.333 69.9905 176.209 71.3564 174.124C72.7143 172.051 73.5194 169.478 73.5561 167.266L73.9723 142.157L74.1351 132.336C74.1696 130.26 72.524 129.04 70.5942 129.45L61.9782 131.282C60.0485 131.693 58.3507 133.623 58.3162 135.7L58.1985 142.799L58.1985 142.8Z" stroke="black" stroke-opacity="0.2" stroke-width="5" stroke-linejoin="round"/>
<path d="M128.995 85.0461C146.322 79.318 158.823 63.0075 158.823 43.7807C158.823 19.7797 139.343 0.323059 115.313 0.323059C91.283 0.323059 71.8027 19.7797 71.8027 43.7807C71.8027 64.5852 86.4397 81.9752 105.989 86.2383V91.5057C105.989 95.5466 110.534 97.9183 113.849 95.6071L128.995 85.0461Z" fill="#66DFE7"/>
<path d="M115.896 16.3983C112.532 16.3983 109.841 19.1918 109.966 22.5535L110.988 49.9876C111.073 52.2609 112.941 54.0601 115.216 54.0601V54.0601C117.41 54.0601 119.24 52.3824 119.43 50.1965L121.808 22.8466C122.109 19.3794 119.376 16.3983 115.896 16.3983V16.3983ZM115.07 59.115C113.012 59.115 111.327 59.7702 110.017 61.0807C108.52 62.3913 107.865 64.0762 107.865 66.1356C107.865 68.195 108.52 69.8799 110.017 71.1904C111.327 72.501 113.012 73.2498 115.07 73.2498C117.129 73.2498 118.813 72.5946 120.31 71.2841C121.62 69.9735 122.369 68.195 122.369 66.1356C122.369 64.0762 121.62 62.3913 120.31 61.0807C118.907 59.7702 117.129 59.115 115.07 59.115Z" fill="#222325"/>
<path d="M115.896 16.3983C112.532 16.3983 109.841 19.1918 109.966 22.5535L110.988 49.9876C111.073 52.2609 112.941 54.0601 115.216 54.0601V54.0601C117.41 54.0601 119.24 52.3824 119.43 50.1965L121.808 22.8466C122.109 19.3794 119.376 16.3983 115.896 16.3983V16.3983ZM115.07 59.115C113.012 59.115 111.327 59.7702 110.017 61.0807C108.52 62.3913 107.865 64.0762 107.865 66.1356C107.865 68.195 108.52 69.8799 110.017 71.1904C111.327 72.501 113.012 73.2498 115.07 73.2498C117.129 73.2498 118.813 72.5946 120.31 71.2841C121.62 69.9735 122.369 68.195 122.369 66.1356C122.369 64.0762 121.62 62.3913 120.31 61.0807C118.907 59.7702 117.129 59.115 115.07 59.115Z" fill="black" fill-opacity="0.2"/>
<path d="M82.6456 64.3596C82.6061 64.3513 82.5664 64.344 82.5265 64.3377L75.3015 63.1861C74.9625 63.117 74.6107 63.0608 74.2526 63.0035C72.4581 62.7165 70.5041 62.404 69.1846 60.3267C68.4233 59.1281 68.5022 58.0118 68.9843 56.0424C69.0318 55.8482 69.0856 55.6408 69.1424 55.4214C69.6047 53.6377 70.2718 51.0636 69.4717 48.3581C68.8209 46.1574 67.0233 44.9921 65.3298 44.4099C63.6448 43.8306 61.6682 43.6712 59.7898 43.6994C56.0049 43.7562 51.8438 44.5941 49.3182 45.3442C44.4327 46.7951 30.7917 52.3737 25.6683 55.1602C22.9026 56.6644 19.2233 59.5406 15.9842 62.9743C12.7709 66.3808 9.71116 70.6293 8.56093 74.9505C6.49817 82.7 6.30933 87.6388 6.83292 93.2345C7.33695 98.6212 8.63975 107.66 9.68356 112.889C10.8344 118.654 15.0325 125.608 20.3176 130.767C26.7515 137.048 33.4011 142.463 43.1799 140.395L75.8297 135.934C75.8336 135.934 75.8376 135.933 75.8415 135.933C81.1604 135.252 85.2171 132.546 88.6097 128.843C90.4231 126.864 92.1258 123.903 93.4117 121.155C94.6909 118.421 95.7256 115.536 96.0222 113.608C96.2664 112.022 97.0134 107.032 97.7001 101.936C98.3734 96.9379 99.03 91.5534 99.03 89.3542C99.03 85.3156 98.7969 80.1644 96.6724 75.2624C95.2604 72.0045 93.5567 69.5652 91.16 67.7793C88.7956 66.0176 85.9743 65.0569 82.6456 64.3596Z" stroke="#222325" stroke-width="5" stroke-linecap="round" stroke-linejoin="round"/>
<path d="M82.6456 64.3596C82.6061 64.3513 82.5664 64.344 82.5265 64.3377L75.3015 63.1861C74.9625 63.117 74.6107 63.0608 74.2526 63.0035C72.4581 62.7165 70.5041 62.404 69.1846 60.3267C68.4233 59.1281 68.5022 58.0118 68.9843 56.0424C69.0318 55.8482 69.0856 55.6408 69.1424 55.4214C69.6047 53.6377 70.2718 51.0636 69.4717 48.3581C68.8209 46.1574 67.0233 44.9921 65.3298 44.4099C63.6448 43.8306 61.6682 43.6712 59.7898 43.6994C56.0049 43.7562 51.8438 44.5941 49.3182 45.3442C44.4327 46.7951 30.7917 52.3737 25.6683 55.1602C22.9026 56.6644 19.2233 59.5406 15.9842 62.9743C12.7709 66.3808 9.71116 70.6293 8.56093 74.9505C6.49817 82.7 6.30933 87.6388 6.83292 93.2345C7.33695 98.6212 8.63975 107.66 9.68356 112.889C10.8344 118.654 15.0325 125.608 20.3176 130.767C26.7515 137.048 33.4011 142.463 43.1799 140.395L75.8297 135.934C75.8336 135.934 75.8376 135.933 75.8415 135.933C81.1604 135.252 85.2171 132.546 88.6097 128.843C90.4231 126.864 92.1258 123.903 93.4117 121.155C94.6909 118.421 95.7256 115.536 96.0222 113.608C96.2664 112.022 97.0134 107.032 97.7001 101.936C98.3734 96.9379 99.03 91.5534 99.03 89.3542C99.03 85.3156 98.7969 80.1644 96.6724 75.2624C95.2604 72.0045 93.5567 69.5652 91.16 67.7793C88.7956 66.0176 85.9743 65.0569 82.6456 64.3596Z" stroke="black" stroke-opacity="0.2" stroke-width="5" stroke-linecap="round" stroke-linejoin="round"/>
<mask id="mask0_2_200" style="mask-type:alpha" maskUnits="userSpaceOnUse" x="9" y="46" width="88" height="93">
<path d="M22.0799 128.945C17.0399 124.033 13.1662 117.51 12.1389 112.372C11.1117 107.235 9.81936 98.2857 9.32234 92.9826C8.82531 87.6794 8.99082 83.0392 10.9791 75.5816C12.9674 68.1241 21.9141 60.0508 26.8846 57.3519C31.8551 54.6529 45.3502 49.1426 50.0802 47.7401C54.8102 46.3377 65.8201 44.5913 67.1456 49.0659C68.4711 53.5404 64.4361 57.4019 67.1456 61.6608C69.4652 65.3067 73.518 65.3422 74.9327 65.638L82.2228 66.7981C88.5887 68.1295 91.8832 70.2547 94.4834 76.2443C96.3947 80.6473 96.6374 85.3593 96.6374 89.3367C96.6374 93.314 94.1405 110.052 93.6551 113.201C93.1697 116.35 89.9863 123.717 86.8619 127.121C83.7376 130.525 80.1785 132.836 75.5955 133.419L42.7902 137.893C34.3405 139.717 28.5416 135.242 22.0799 128.945Z" fill="#D9D9D9"/>
</mask>
<g mask="url(#mask0_2_200)">
<ellipse cx="55.4744" cy="53.5323" rx="55.4744" ry="53.5323" transform="matrix(-1 0 0 1 106.354 41.7741)" fill="#EEEFFC"/>
<path d="M47.4295 141.705L34.225 139.002C25.7703 137.168 23.3027 135.014 19.161 130.926C15.7227 127.532 13.9629 122.069 11.954 116.709C9.9451 111.349 7.78328 93.6898 8.16248 86.3536C8.54168 79.0175 11.5064 72.809 14.7899 69.2841C19.0383 64.7235 26.3461 60.8929 31.0268 58.8436C35.7075 56.7943 43.7845 54.2033 48.2579 53.5404C52.7313 52.8775 59.8408 52.0479 62.5066 54.3691C64.3807 56.0008 64.0586 59.485 64.7806 62.154C65.5027 64.8231 69.2534 66.4627 72.4425 66.7474C75.6317 67.0321 80.8657 67.7276 80.8657 67.7276C88.194 68.7918 92.2159 71.6126 93.8208 74.0901C95.4257 76.5677 97.5284 84.926 97.4658 90.4967C97.4033 96.0674 96.1404 103.589 96.1404 103.589C95.7357 107.931 91.0297 121.769 88.8867 125.612C86.9441 129.095 76.9211 139.002 76.9211 139.002C67.3977 149.852 59.0499 143.603 47.4295 141.705Z" fill="#C9CEF4"/>
<path d="M15.1094 109.444C16.9404 116.047 25.4322 125.112 32.5674 130.682C36.8485 134.024 40.703 134.453 47.3173 133.445C69.6918 130.033 79.1996 126.638 83.1758 116.906C87.152 107.173 94.1905 89.7766 90.0101 85.6907V85.6907C73.5234 69.5765 45.4963 79.9255 22.5633 82.2768C22.2426 82.3097 21.9159 82.3428 21.5829 82.3762C18.0058 82.735 13.3001 83.5272 12.8017 88.8394C12.3032 94.1517 13.2784 102.842 15.1094 109.444Z" fill="#5260DD"/>
<g filter="url(#filter3_i_2_200)">
<path d="M15.2402 111.379C17.0332 119.885 25.3807 126.669 30.3588 130.327C35.3368 133.986 40.5186 134.059 47.4295 133.419C71.2773 131.211 81.2148 131.415 86.3258 121.242C91.4368 111.07 94.5777 88.9529 90.1758 84.8621C80.6009 75.964 50.965 88.1837 44.0105 89.2993C37.0559 90.4148 28.0028 93.5363 20.6507 87.7905C13.2987 82.0448 12.636 85.9699 12.636 93.1483C12.636 100.327 13.4472 102.874 15.2402 111.379Z" fill="#707EFF"/>
</g>
</g>
<path d="M52.8936 92.2513L60.0179 96.0629L54.0533 102.195M74.1908 90.1563L69.883 95.128L75.4785 98.2079" stroke="#222325" stroke-width="5" stroke-linecap="round" stroke-linejoin="round"/>
<path d="M52.8936 92.2513L60.0179 96.0629L54.0533 102.195M74.1908 90.1563L69.883 95.128L75.4785 98.2079" stroke="black" stroke-opacity="0.2" stroke-width="5" stroke-linecap="round" stroke-linejoin="round"/>
<g filter="url(#filter4_i_2_200)">
<path d="M68.6669 109.682C68.6669 100.172 79.6684 99.9 79.6684 108.324C79.6684 116.277 82.478 118.34 86.9336 118.798C89.1765 119.029 93.8924 118.928 96.1542 114.492C99.4594 116.387 98.9826 122.07 96.1542 125.343C94.6178 127.121 90.1889 129.14 85.8898 129.304C75.6433 129.695 68.6669 121.176 68.6669 109.682Z" fill="#707EFF"/>
</g>
<path d="M68.6669 109.682C68.6669 100.172 79.6684 99.9 79.6684 108.324C79.6684 116.277 82.478 118.34 86.9336 118.798C89.1765 119.029 93.8924 118.928 96.1542 114.492C99.4594 116.387 98.9826 122.07 96.1542 125.343C94.6178 127.121 90.1889 129.14 85.8898 129.304C75.6433 129.695 68.6669 121.176 68.6669 109.682Z" stroke="#222325" stroke-width="5" stroke-linecap="round" stroke-linejoin="round"/>
<path d="M68.6669 109.682C68.6669 100.172 79.6684 99.9 79.6684 108.324C79.6684 116.277 82.478 118.34 86.9336 118.798C89.1765 119.029 93.8924 118.928 96.1542 114.492C99.4594 116.387 98.9826 122.07 96.1542 125.343C94.6178 127.121 90.1889 129.14 85.8898 129.304C75.6433 129.695 68.6669 121.176 68.6669 109.682Z" stroke="black" stroke-opacity="0.2" stroke-width="5" stroke-linecap="round" stroke-linejoin="round"/>
<path d="M41.1302 78.6991C37.0275 85.4556 31.5989 101.518 40.9481 100.905C50.5659 100.275 45.2953 84.9136 41.1302 78.6991Z" fill="#EEEFFC"/>
<path d="M41.1302 78.6991C37.0275 85.4556 31.5989 101.518 40.9481 100.905C50.5659 100.275 45.2953 84.9136 41.1302 78.6991Z" stroke="#222325" stroke-width="5" stroke-linecap="round" stroke-linejoin="round"/>
<path d="M41.1302 78.6991C37.0275 85.4556 31.5989 101.518 40.9481 100.905C50.5659 100.275 45.2953 84.9136 41.1302 78.6991Z" stroke="black" stroke-opacity="0.2" stroke-width="5" stroke-linecap="round" stroke-linejoin="round"/>
<g filter="url(#filter5_i_2_200)">
<path d="M41.0321 123.828C30.9113 122.957 26.6108 112.628 26.6108 108.578C24.1679 107.023 16.729 104.723 16.729 114.222C16.729 114.222 21.2334 133.654 38.6802 134.806C64.8226 136.533 70.2349 123.408 70.2349 111.246C70.2349 101.183 58.7182 101.737 58.7182 110.65C58.7182 119.564 51.1529 124.699 41.0321 123.828Z" fill="#707EFF"/>
</g>
<path d="M41.0321 123.828C30.9113 122.957 26.6108 112.628 26.6108 108.578C24.1679 107.023 16.729 104.723 16.729 114.222C16.729 114.222 21.2334 133.654 38.6802 134.806C64.8226 136.533 70.2349 123.408 70.2349 111.246C70.2349 101.183 58.7182 101.737 58.7182 110.65C58.7182 119.564 51.1529 124.699 41.0321 123.828Z" stroke="#222325" stroke-width="5" stroke-linecap="round" stroke-linejoin="round"/>
<path d="M41.0321 123.828C30.9113 122.957 26.6108 112.628 26.6108 108.578C24.1679 107.023 16.729 104.723 16.729 114.222C16.729 114.222 21.2334 133.654 38.6802 134.806C64.8226 136.533 70.2349 123.408 70.2349 111.246C70.2349 101.183 58.7182 101.737 58.7182 110.65C58.7182 119.564 51.1529 124.699 41.0321 123.828Z" stroke="black" stroke-opacity="0.2" stroke-width="5" stroke-linecap="round" stroke-linejoin="round"/>
<path d="M94.8752 160.506L107.182 146.195V157.761H118.121L112.651 164.23L120.856 168.347L107.182 175.993" stroke="#222325" stroke-width="5" stroke-linecap="round" stroke-linejoin="round"/>
<path d="M94.8752 160.506L107.182 146.195V157.761H118.121L112.651 164.23L120.856 168.347L107.182 175.993" stroke="black" stroke-opacity="0.2" stroke-width="5" stroke-linecap="round" stroke-linejoin="round"/>
<path d="M57.969 51.3957C56.0899 52.3618 52.073 55.5608 51.0389 60.6279" stroke="#222325" stroke-width="5" stroke-linecap="round" stroke-linejoin="round"/>
<path d="M57.969 51.3957C56.0899 52.3618 52.073 55.5608 51.0389 60.6279" stroke="black" stroke-opacity="0.2" stroke-width="5" stroke-linecap="round" stroke-linejoin="round"/>
<defs>
<filter id="filter0_i_2_200" x="10.5042" y="137.229" width="31.2092" height="40.224" filterUnits="userSpaceOnUse" color-interpolation-filters="sRGB">
<feFlood flood-opacity="0" result="BackgroundImageFix"/>
<feBlend mode="normal" in="SourceGraphic" in2="BackgroundImageFix" result="shape"/>
<feColorMatrix in="SourceAlpha" type="matrix" values="0 0 0 0 0 0 0 0 0 0 0 0 0 0 0 0 0 0 127 0" result="hardAlpha"/>
<feOffset dx="-5" dy="-17"/>
<feGaussianBlur stdDeviation="1.5"/>
<feComposite in2="hardAlpha" operator="arithmetic" k2="-1" k3="1"/>
<feColorMatrix type="matrix" values="0 0 0 0 0.141667 0 0 0 0 0.170204 0 0 0 0 0.425 0 0 0 0.34 0"/>
<feBlend mode="darken" in2="shape" result="effect1_innerShadow_2_200"/>
</filter>
<filter id="filter1_i_2_200" x="33.5122" y="123.784" width="24.2537" height="56.8686" filterUnits="userSpaceOnUse" color-interpolation-filters="sRGB">
<feFlood flood-opacity="0" result="BackgroundImageFix"/>
<feBlend mode="normal" in="SourceGraphic" in2="BackgroundImageFix" result="shape"/>
<feColorMatrix in="SourceAlpha" type="matrix" values="0 0 0 0 0 0 0 0 0 0 0 0 0 0 0 0 0 0 127 0" result="hardAlpha"/>
<feOffset dx="-5" dy="-17"/>
<feGaussianBlur stdDeviation="1.5"/>
<feComposite in2="hardAlpha" operator="arithmetic" k2="-1" k3="1"/>
<feColorMatrix type="matrix" values="0 0 0 0 0.321569 0 0 0 0 0.376471 0 0 0 0 0.866667 0 0 0 0.6 0"/>
<feBlend mode="normal" in2="shape" result="effect1_innerShadow_2_200"/>
</filter>
<filter id="filter2_i_2_200" x="52.3276" y="123.819" width="24.2537" height="56.8686" filterUnits="userSpaceOnUse" color-interpolation-filters="sRGB">
<feFlood flood-opacity="0" result="BackgroundImageFix"/>
<feBlend mode="normal" in="SourceGraphic" in2="BackgroundImageFix" result="shape"/>
<feColorMatrix in="SourceAlpha" type="matrix" values="0 0 0 0 0 0 0 0 0 0 0 0 0 0 0 0 0 0 127 0" result="hardAlpha"/>
<feOffset dx="-5" dy="-17"/>
<feGaussianBlur stdDeviation="1.5"/>
<feComposite in2="hardAlpha" operator="arithmetic" k2="-1" k3="1"/>
<feColorMatrix type="matrix" values="0 0 0 0 0.321569 0 0 0 0 0.376471 0 0 0 0 0.866667 0 0 0 0.6 0"/>
<feBlend mode="normal" in2="shape" result="effect1_innerShadow_2_200"/>
</filter>
<filter id="filter3_i_2_200" x="12.636" y="78.6374" width="82.6338" height="55.0884" filterUnits="userSpaceOnUse" color-interpolation-filters="sRGB">
<feFlood flood-opacity="0" result="BackgroundImageFix"/>
<feBlend mode="normal" in="SourceGraphic" in2="BackgroundImageFix" result="shape"/>
<feColorMatrix in="SourceAlpha" type="matrix" values="0 0 0 0 0 0 0 0 0 0 0 0 0 0 0 0 0 0 127 0" result="hardAlpha"/>
<feOffset dx="7" dy="-10"/>
<feGaussianBlur stdDeviation="1.5"/>
<feComposite in2="hardAlpha" operator="arithmetic" k2="-1" k3="1"/>
<feColorMatrix type="matrix" values="0 0 0 0 0.321569 0 0 0 0 0.376471 0 0 0 0 0.866667 0 0 0 0.6 0"/>
<feBlend mode="normal" in2="shape" result="effect1_innerShadow_2_200"/>
</filter>
<filter id="filter4_i_2_200" x="63.167" y="96.7638" width="37.7905" height="35.0534" filterUnits="userSpaceOnUse" color-interpolation-filters="sRGB">
<feFlood flood-opacity="0" result="BackgroundImageFix"/>
<feBlend mode="normal" in="SourceGraphic" in2="BackgroundImageFix" result="shape"/>
<feColorMatrix in="SourceAlpha" type="matrix" values="0 0 0 0 0 0 0 0 0 0 0 0 0 0 0 0 0 0 127 0" result="hardAlpha"/>
<feOffset dx="-5" dy="-17"/>
<feGaussianBlur stdDeviation="1.5"/>
<feComposite in2="hardAlpha" operator="arithmetic" k2="-1" k3="1"/>
<feColorMatrix type="matrix" values="0 0 0 0 0.141667 0 0 0 0 0.170204 0 0 0 0 0.425 0 0 0 0.34 0"/>
<feBlend mode="darken" in2="shape" result="effect1_innerShadow_2_200"/>
</filter>
<filter id="filter5_i_2_200" x="11.229" y="98.332" width="61.5059" height="39.1278" filterUnits="userSpaceOnUse" color-interpolation-filters="sRGB">
<feFlood flood-opacity="0" result="BackgroundImageFix"/>
<feBlend mode="normal" in="SourceGraphic" in2="BackgroundImageFix" result="shape"/>
<feColorMatrix in="SourceAlpha" type="matrix" values="0 0 0 0 0 0 0 0 0 0 0 0 0 0 0 0 0 0 127 0" result="hardAlpha"/>
<feOffset dx="-5" dy="-17"/>
<feGaussianBlur stdDeviation="1.5"/>
<feComposite in2="hardAlpha" operator="arithmetic" k2="-1" k3="1"/>
<feColorMatrix type="matrix" values="0 0 0 0 0.141667 0 0 0 0 0.170204 0 0 0 0 0.425 0 0 0 0.34 0"/>
<feBlend mode="darken" in2="shape" result="effect1_innerShadow_2_200"/>
</filter>
</defs>
</svg>
