<svg width="156" height="126" viewBox="0 0 156 126" fill="none" xmlns="http://www.w3.org/2000/svg">
<path d="M52.2787 3.14662C46.9075 2.60625 41.6665 11.5039 47.3839 15.1677C54.5305 19.7475 61.8547 11.9223 59.7664 10.1403C54.7786 5.88426 48.4458 18.4328 54.7656 21.072C61.0854 23.7113 65.4508 17.1873 63.581 15.4609C61.7113 13.7346 57.6275 23.1564 64.5038 24.9552" stroke="#222325" stroke-width="5" stroke-linecap="round" stroke-linejoin="round"/>
<path d="M52.2787 3.14662C46.9075 2.60625 41.6665 11.5039 47.3839 15.1677C54.5305 19.7475 61.8547 11.9223 59.7664 10.1403C54.7786 5.88426 48.4458 18.4328 54.7656 21.072C61.0854 23.7113 65.4508 17.1873 63.581 15.4609C61.7113 13.7346 57.6275 23.1564 64.5038 24.9552" stroke="black" stroke-opacity="0.2" stroke-width="5" stroke-linecap="round" stroke-linejoin="round"/>
<path d="M117.659 73.8182C101.071 70.4594 91.3824 64.757 57.2038 57.9073C43.3868 55.1382 12.5102 58.0528 23.4382 70.4244C30.4811 78.3977 18.5543 80.7702 11.1959 80.3571C3.8375 79.9439 -13.3863 95.2862 26.9135 97.1696C67.2133 99.0531 79.7349 110.755 90.512 112.498C101.289 114.241 152.001 117.468 153.399 106.926C154.798 96.3849 119.577 94.0281 130.479 87.0545C141.381 80.0809 138.395 78.0167 117.659 73.8182Z" fill="#63BDFF"/>
<path d="M27.7454 69.4776C27.4567 69.7219 27.0231 69.6898 26.7763 69.4119C26.5296 69.1341 26.5585 68.7104 26.8472 68.4662C27.1358 68.2219 27.5695 68.2539 27.8162 68.5318C28.063 68.8096 28.034 69.2333 27.7454 69.4776Z" fill="#FDEBC6" stroke="#FDEBC6"/>
<path d="M25.6149 66.2585C25.6149 66.2585 24.2958 64.9071 26.6311 63.4348C30.384 61.0689 35.1717 60.2566 38.9647 60.256" stroke="#FDEBC6" stroke-width="5" stroke-linecap="round" stroke-linejoin="round"/>
<path d="M67.5478 33.0855C61.744 35.7713 55.4182 39.6293 52.0245 44.6744L52.0181 44.6823C51.9673 44.7456 51.8936 44.8378 51.7996 44.956C51.6118 45.1924 51.3431 45.5333 51.0152 45.9564C50.3603 46.8014 49.4659 47.9791 48.5084 49.3089C46.6437 51.8985 44.365 55.3018 43.28 57.9516C43.0012 58.6325 42.72 59.2952 42.4439 59.9459C40.9391 63.492 39.5845 66.6843 39.5845 70.5499C39.5845 74.772 39.7628 76.3814 41.8507 86.0075C42.9598 91.1213 44.7189 94.6043 47.7715 97.1844C50.6787 99.6417 54.5508 101.073 59.2188 102.652L59.2289 102.656L79.2337 109.327L79.2437 109.331L79.4086 109.386C81.5429 110.109 83.7751 110.864 86.3676 111.174C89.0798 111.497 92.0812 111.328 95.8562 110.35C98.1139 109.765 100.223 108.422 102.038 106.932C103.877 105.421 105.571 103.627 106.994 101.943C108.423 100.252 109.616 98.6283 110.451 97.4291C110.87 96.8279 111.201 96.3298 111.43 95.9787C111.544 95.803 111.633 95.6639 111.695 95.5668C111.71 95.5428 111.723 95.5213 111.735 95.5025C114.672 91.521 117.508 85.7505 118.367 80.941C118.772 78.6708 119.166 75.5065 119.455 72.9552C119.6 71.67 119.721 70.523 119.806 69.6972C119.848 69.2842 119.882 68.9511 119.904 68.7208L119.93 68.4551L119.936 68.395C120.202 66.2291 120.773 61.1395 119.912 56.2783C118.894 50.5272 114.324 47.392 110.014 45.5186C109.963 45.4964 109.911 45.476 109.859 45.4573L101.395 42.43C101.484 41.7124 101.55 40.9488 101.549 40.1889C101.548 38.5859 101.259 36.7571 100.14 35.075C97.8786 31.6742 93.103 30.058 85.159 30.058C84.9096 30.058 84.6533 30.0573 84.3902 30.0565C80.149 30.044 74.1583 30.0264 67.5478 33.0855Z" stroke="#222325" stroke-width="5" stroke-linecap="round" stroke-linejoin="round"/>
<path d="M67.5478 33.0855C61.744 35.7713 55.4182 39.6293 52.0245 44.6744L52.0181 44.6823C51.9673 44.7456 51.8936 44.8378 51.7996 44.956C51.6118 45.1924 51.3431 45.5333 51.0152 45.9564C50.3603 46.8014 49.4659 47.9791 48.5084 49.3089C46.6437 51.8985 44.365 55.3018 43.28 57.9516C43.0012 58.6325 42.72 59.2952 42.4439 59.9459C40.9391 63.492 39.5845 66.6843 39.5845 70.5499C39.5845 74.772 39.7628 76.3814 41.8507 86.0075C42.9598 91.1213 44.7189 94.6043 47.7715 97.1844C50.6787 99.6417 54.5508 101.073 59.2188 102.652L59.2289 102.656L79.2337 109.327L79.2437 109.331L79.4086 109.386C81.5429 110.109 83.7751 110.864 86.3676 111.174C89.0798 111.497 92.0812 111.328 95.8562 110.35C98.1139 109.765 100.223 108.422 102.038 106.932C103.877 105.421 105.571 103.627 106.994 101.943C108.423 100.252 109.616 98.6283 110.451 97.4291C110.87 96.8279 111.201 96.3298 111.43 95.9787C111.544 95.803 111.633 95.6639 111.695 95.5668C111.71 95.5428 111.723 95.5213 111.735 95.5025C114.672 91.521 117.508 85.7505 118.367 80.941C118.772 78.6708 119.166 75.5065 119.455 72.9552C119.6 71.67 119.721 70.523 119.806 69.6972C119.848 69.2842 119.882 68.9511 119.904 68.7208L119.93 68.4551L119.936 68.395C120.202 66.2291 120.773 61.1395 119.912 56.2783C118.894 50.5272 114.324 47.392 110.014 45.5186C109.963 45.4964 109.911 45.476 109.859 45.4573L101.395 42.43C101.484 41.7124 101.55 40.9488 101.549 40.1889C101.548 38.5859 101.259 36.7571 100.14 35.075C97.8786 31.6742 93.103 30.058 85.159 30.058C84.9096 30.058 84.6533 30.0573 84.3902 30.0565C80.149 30.044 74.1583 30.0264 67.5478 33.0855Z" stroke="black" stroke-opacity="0.2" stroke-width="5" stroke-linecap="round" stroke-linejoin="round"/>
<mask id="mask0_2_263" style="mask-type:alpha" maskUnits="userSpaceOnUse" x="42" y="32" width="76" height="77">
<path d="M44.2938 85.4776C42.2144 75.8899 42.0845 74.4945 42.0845 70.5499C42.0845 66.6052 43.6745 63.5858 45.5936 58.8989C47.5127 54.212 54.0414 46.1557 54.0414 46.1557C57.0147 41.6707 62.8377 38.0199 68.5977 35.3543C75.0493 32.3688 80.8315 32.5581 85.159 32.558C100.829 32.558 99.3997 39.1166 98.6199 44.0925L109.017 47.8113C113.09 49.5818 116.657 52.2307 117.451 56.7144C118.245 61.198 117.714 65.9855 117.451 68.1226C117.451 68.1226 116.685 76.1326 115.906 80.5017C115.126 84.8708 112.459 90.3351 109.667 94.0944C109.667 94.0944 102.259 106.109 95.2295 107.93C88.1999 109.75 84.4826 108.463 80.0347 106.959L60.0198 100.284C50.5496 97.0809 46.3733 95.0654 44.2938 85.4776Z" fill="#D9D9D9"/>
</mask>
<g mask="url(#mask0_2_263)">
<g filter="url(#filter0_i_2_263)">
<path d="M44.2938 85.4776C42.2144 75.8899 42.0845 74.4945 42.0845 70.5499C42.0845 66.6052 43.6745 63.5858 45.5936 58.8989C47.5127 54.212 54.0414 46.1557 54.0414 46.1557C57.0147 41.6707 62.8377 38.0199 68.5977 35.3543C75.0493 32.3688 80.8315 32.5581 85.159 32.558C100.829 32.558 99.3997 39.1166 98.6199 44.0925L109.017 47.8113C113.09 49.5818 116.657 52.2307 117.451 56.7144C118.245 61.198 117.714 65.9855 117.451 68.1226C117.451 68.1226 116.685 76.1326 115.906 80.5017C115.126 84.8708 112.459 90.3351 109.667 94.0944C109.667 94.0944 102.259 106.109 95.2295 107.93C88.1999 109.75 84.4826 108.463 80.0347 106.959L60.0198 100.284C50.5496 97.0809 46.3733 95.0654 44.2938 85.4776Z" fill="#C9CEF4"/>
</g>
<g filter="url(#filter1_i_2_263)">
<path d="M98.3929 99.9087C93.8846 103.356 90.3423 104.416 82.4527 102.825C79.6619 102.295 71.8259 100.466 62.8093 97.3899C55.5593 94.9169 51.7098 92.8496 50.089 91.698C49.5153 91.2903 49.2019 90.7118 49.0605 90.0988C48.8108 89.0164 48.4089 87.1275 48.1572 85.1936C47.6742 81.4816 57.6569 69.0201 61.0381 66.2361C63.5294 64.1849 67.1942 62.1779 71.826 60.8372C78.2649 58.9734 86.3179 59.6906 89.237 60.1966C90.8298 60.4727 91.6304 61.7149 91.6304 63.0551V64.9082C91.6304 65.7741 91.9449 66.6579 92.8797 67.0547C95.9109 68.3415 102.779 68.8569 106.444 71.5389C110.791 74.7206 110.63 77.5045 109.986 82.5422C109.342 87.5798 102.901 96.4619 98.3929 99.9087Z" fill="#707EFF"/>
</g>
<ellipse cx="2.23103" cy="2.2543" rx="2.23103" ry="2.2543" transform="matrix(0.68035 0.732888 -0.777188 0.629268 81.5736 33.6008)" fill="white"/>
<path d="M73.3469 38.0694C73.3469 38.0694 65.5291 38.0694 57.9179 49.1419" stroke="white" stroke-width="8" stroke-linecap="round" stroke-linejoin="round"/>
<path d="M94.8672 41.9444L99.6302 43.3639" stroke="#222325" stroke-width="8" stroke-linecap="round"/>
<path d="M94.8672 41.9444L99.6302 43.3639" stroke="black" stroke-opacity="0.2" stroke-width="8" stroke-linecap="round"/>
<path d="M48.6896 73.4769C56.6094 74.9706 70.331 79.6329 79.1562 82.7856C84.7234 84.7744 91.9848 87.5051 91.353 93.3875V93.3875M91.3559 97.7783L91.3577 100.721" stroke="#222325" stroke-width="8" stroke-linecap="round" stroke-linejoin="round"/>
<path d="M48.6896 73.4769C56.6094 74.9706 70.331 79.6329 79.1562 82.7856C84.7234 84.7744 91.9848 87.5051 91.353 93.3875V93.3875M91.3559 97.7783L91.3577 100.721" stroke="black" stroke-opacity="0.2" stroke-width="8" stroke-linecap="round" stroke-linejoin="round"/>
</g>
<path d="M71.6863 45.5178L75.0075 52.766M78 47.7038L68.6937 50.58" stroke="#222325" stroke-width="5" stroke-linecap="round" stroke-linejoin="round"/>
<path d="M71.6863 45.5178L75.0075 52.766M78 47.7038L68.6937 50.58" stroke="black" stroke-opacity="0.2" stroke-width="5" stroke-linecap="round" stroke-linejoin="round"/>
<path d="M88.2769 49.1419L92.3472 58.0251M96.0148 51.821L84.6093 55.346" stroke="#222325" stroke-width="5" stroke-linecap="round" stroke-linejoin="round"/>
<path d="M88.2769 49.1419L92.3472 58.0251M96.0148 51.821L84.6093 55.346" stroke="black" stroke-opacity="0.2" stroke-width="5" stroke-linecap="round" stroke-linejoin="round"/>
<g filter="url(#filter2_i_2_263)">
<path d="M61.3852 90.4975C61.3852 85.9497 56.7913 84.6908 53.5727 85.9497C53.5727 85.9497 47.3044 90.4899 45.1342 94.5134C42.0202 100.286 43.3731 112.672 43.3731 112.672C43.3731 112.672 45.8555 114.238 47.9676 114.483C53.5727 115.134 54.4823 114.222 55.6752 112.672C55.9998 109.162 54.0417 106.36 55.6752 101.092C57.0369 96.7003 61.3852 90.4975 61.3852 90.4975Z" fill="#707EFF"/>
</g>
<path d="M61.3852 90.4975C61.3852 85.9497 56.7913 84.6908 53.5727 85.9497C53.5727 85.9497 47.3044 90.4899 45.1342 94.5134C42.0202 100.286 43.3731 112.672 43.3731 112.672C43.3731 112.672 45.8555 114.238 47.9676 114.483C53.5727 115.134 54.4823 114.222 55.6752 112.672C55.9998 109.162 54.0417 106.36 55.6752 101.092C57.0369 96.7003 61.3852 90.4975 61.3852 90.4975Z" stroke="#222325" stroke-width="5" stroke-linecap="round" stroke-linejoin="round"/>
<path d="M61.3852 90.4975C61.3852 85.9497 56.7913 84.6908 53.5727 85.9497C53.5727 85.9497 47.3044 90.4899 45.1342 94.5134C42.0202 100.286 43.3731 112.672 43.3731 112.672C43.3731 112.672 45.8555 114.238 47.9676 114.483C53.5727 115.134 54.4823 114.222 55.6752 112.672C55.9998 109.162 54.0417 106.36 55.6752 101.092C57.0369 96.7003 61.3852 90.4975 61.3852 90.4975Z" stroke="black" stroke-opacity="0.2" stroke-width="5" stroke-linecap="round" stroke-linejoin="round"/>
<g filter="url(#filter3_i_2_263)">
<path d="M77.0105 95.7558C76.2854 91.2122 71.3437 90.5897 69.056 91.7765C69.056 91.7765 62.7214 96.3247 60.7291 101.56C58.7369 106.795 59.1974 117.161 59.1974 117.161C59.1974 117.161 62.0396 118.83 64.5354 119.08C69.8355 119.611 71.9699 117.782 71.9699 117.782C72.8006 114.242 70.7527 111.546 71.9699 106.57C73.1871 101.594 77.0105 95.7558 77.0105 95.7558Z" fill="#707EFF"/>
</g>
<path d="M77.0105 95.7558C76.2854 91.2122 71.3437 90.5897 69.056 91.7765C69.056 91.7765 62.7214 96.3247 60.7291 101.56C58.7369 106.795 59.1974 117.161 59.1974 117.161C59.1974 117.161 62.0396 118.83 64.5354 119.08C69.8355 119.611 71.9699 117.782 71.9699 117.782C72.8006 114.242 70.7527 111.546 71.9699 106.57C73.1871 101.594 77.0105 95.7558 77.0105 95.7558Z" stroke="#222325" stroke-width="5" stroke-linecap="round" stroke-linejoin="round"/>
<path d="M77.0105 95.7558C76.2854 91.2122 71.3437 90.5897 69.056 91.7765C69.056 91.7765 62.7214 96.3247 60.7291 101.56C58.7369 106.795 59.1974 117.161 59.1974 117.161C59.1974 117.161 62.0396 118.83 64.5354 119.08C69.8355 119.611 71.9699 117.782 71.9699 117.782C72.8006 114.242 70.7527 111.546 71.9699 106.57C73.1871 101.594 77.0105 95.7558 77.0105 95.7558Z" stroke="black" stroke-opacity="0.2" stroke-width="5" stroke-linecap="round" stroke-linejoin="round"/>
<path d="M43.8049 116.596C46.7919 117.493 53.5126 118.569 56.4995 115.7M61.7265 121.976C64.365 122.822 71.912 123.829 75.6158 119.884C78.7022 116.596 76.014 113.359 73.8236 112.861" stroke="#222325" stroke-width="5" stroke-linecap="round"/>
<path d="M43.8049 116.596C46.7919 117.493 53.5126 118.569 56.4995 115.7M61.7265 121.976C64.365 122.822 71.912 123.829 75.6158 119.884C78.7022 116.596 76.014 113.359 73.8236 112.861" stroke="black" stroke-opacity="0.2" stroke-width="5" stroke-linecap="round"/>
<g filter="url(#filter4_i_2_263)">
<path d="M44.6547 59.2175L45.8517 54.1648C40.3171 55.3422 37.2448 59.8634 36.7895 64.0207C36.249 68.9563 38.4653 71.9379 45.8518 74.2489C55.0849 77.1377 68.0795 76.9353 69.6183 71.1577C71.1572 65.3801 60.5562 65.2102 52.178 65.2102C45.4755 65.2102 44.3698 61.2 44.6547 59.2175Z" fill="#C9CEF4"/>
</g>
<path d="M44.6547 59.2175L45.8517 54.1648C40.3171 55.3422 37.2448 59.8634 36.7895 64.0207C36.249 68.9563 38.4653 71.9379 45.8518 74.2489C55.0849 77.1377 68.0795 76.9353 69.6183 71.1577C71.1572 65.3801 60.5562 65.2102 52.178 65.2102C45.4755 65.2102 44.3698 61.2 44.6547 59.2175Z" stroke="#222325" stroke-width="5" stroke-linecap="round" stroke-linejoin="round"/>
<path d="M44.6547 59.2175L45.8517 54.1648C40.3171 55.3422 37.2448 59.8634 36.7895 64.0207C36.249 68.9563 38.4653 71.9379 45.8518 74.2489C55.0849 77.1377 68.0795 76.9353 69.6183 71.1577C71.1572 65.3801 60.5562 65.2102 52.178 65.2102C45.4755 65.2102 44.3698 61.2 44.6547 59.2175Z" stroke="black" stroke-opacity="0.2" stroke-width="5" stroke-linecap="round" stroke-linejoin="round"/>
<g filter="url(#filter5_i_2_263)">
<path d="M106.54 84.4395C103.642 85.7155 103.094 90.9642 103.857 92.268C106.238 96.3363 107.311 97.6172 111.625 100.296C117.318 103.832 125.245 105.214 129.07 105.214C135.946 105.214 140.442 103.848 141.167 100.296C141.892 96.7434 136.71 95.9137 133.399 95.9137C127.216 95.9137 123.411 96.2966 117.864 92.856C112.909 89.7821 112.397 88.0454 111.625 85.9671C111.262 85.2905 109.438 83.1636 106.54 84.4395Z" fill="#C9CEF4"/>
</g>
<path d="M106.54 84.4395C103.642 85.7155 103.094 90.9642 103.857 92.268C106.238 96.3363 107.311 97.6172 111.625 100.296C117.318 103.832 125.245 105.214 129.07 105.214C135.946 105.214 140.442 103.848 141.167 100.296C141.892 96.7434 136.71 95.9137 133.399 95.9137C127.216 95.9137 123.411 96.2966 117.864 92.856C112.909 89.7821 112.397 88.0454 111.625 85.9671C111.262 85.2905 109.438 83.1636 106.54 84.4395Z" stroke="#222325" stroke-width="5" stroke-linecap="round" stroke-linejoin="round"/>
<path d="M106.54 84.4395C103.642 85.7155 103.094 90.9642 103.857 92.268C106.238 96.3363 107.311 97.6172 111.625 100.296C117.318 103.832 125.245 105.214 129.07 105.214C135.946 105.214 140.442 103.848 141.167 100.296C141.892 96.7434 136.71 95.9137 133.399 95.9137C127.216 95.9137 123.411 96.2966 117.864 92.856C112.909 89.7821 112.397 88.0454 111.625 85.9671C111.262 85.2905 109.438 83.1636 106.54 84.4395Z" stroke="black" stroke-opacity="0.2" stroke-width="5" stroke-linecap="round" stroke-linejoin="round"/>
<defs>
<filter id="filter0_i_2_263" x="36.0845" y="22.5556" width="81.7853" height="86.2677" filterUnits="userSpaceOnUse" color-interpolation-filters="sRGB">
<feFlood flood-opacity="0" result="BackgroundImageFix"/>
<feBlend mode="normal" in="SourceGraphic" in2="BackgroundImageFix" result="shape"/>
<feColorMatrix in="SourceAlpha" type="matrix" values="0 0 0 0 0 0 0 0 0 0 0 0 0 0 0 0 0 0 127 0" result="hardAlpha"/>
<feOffset dx="-6" dy="-52"/>
<feGaussianBlur stdDeviation="5"/>
<feComposite in2="hardAlpha" operator="arithmetic" k2="-1" k3="1"/>
<feColorMatrix type="matrix" values="0 0 0 0 0.788235 0 0 0 0 0.807843 0 0 0 0 0.956863 0 0 0 1 0"/>
<feBlend mode="normal" in2="shape" result="effect1_innerShadow_2_263"/>
</filter>
<filter id="filter1_i_2_263" x="45.1403" y="56.628" width="65.186" height="46.9205" filterUnits="userSpaceOnUse" color-interpolation-filters="sRGB">
<feFlood flood-opacity="0" result="BackgroundImageFix"/>
<feBlend mode="normal" in="SourceGraphic" in2="BackgroundImageFix" result="shape"/>
<feColorMatrix in="SourceAlpha" type="matrix" values="0 0 0 0 0 0 0 0 0 0 0 0 0 0 0 0 0 0 127 0" result="hardAlpha"/>
<feOffset dx="-7" dy="-14"/>
<feGaussianBlur stdDeviation="1.5"/>
<feComposite in2="hardAlpha" operator="arithmetic" k2="-1" k3="1"/>
<feColorMatrix type="matrix" values="0 0 0 0 0.321569 0 0 0 0 0.376471 0 0 0 0 0.866667 0 0 0 0.6 0"/>
<feBlend mode="normal" in2="shape" result="effect1_innerShadow_2_263"/>
</filter>
<filter id="filter2_i_2_263" x="37.5807" y="79.989" width="26.3044" height="37.2069" filterUnits="userSpaceOnUse" color-interpolation-filters="sRGB">
<feFlood flood-opacity="0" result="BackgroundImageFix"/>
<feBlend mode="normal" in="SourceGraphic" in2="BackgroundImageFix" result="shape"/>
<feColorMatrix in="SourceAlpha" type="matrix" values="0 0 0 0 0 0 0 0 0 0 0 0 0 0 0 0 0 0 127 0" result="hardAlpha"/>
<feOffset dx="-12" dy="-12"/>
<feGaussianBlur stdDeviation="1.5"/>
<feComposite in2="hardAlpha" operator="arithmetic" k2="-1" k3="1"/>
<feColorMatrix type="matrix" values="0 0 0 0 0.368627 0 0 0 0 0.423529 0 0 0 0 0.921569 0 0 0 1 0"/>
<feBlend mode="normal" in2="shape" result="effect1_innerShadow_2_263"/>
</filter>
<filter id="filter3_i_2_263" x="53.6514" y="85.7516" width="25.8591" height="35.9252" filterUnits="userSpaceOnUse" color-interpolation-filters="sRGB">
<feFlood flood-opacity="0" result="BackgroundImageFix"/>
<feBlend mode="normal" in="SourceGraphic" in2="BackgroundImageFix" result="shape"/>
<feColorMatrix in="SourceAlpha" type="matrix" values="0 0 0 0 0 0 0 0 0 0 0 0 0 0 0 0 0 0 127 0" result="hardAlpha"/>
<feOffset dx="-12" dy="-12"/>
<feGaussianBlur stdDeviation="1.5"/>
<feComposite in2="hardAlpha" operator="arithmetic" k2="-1" k3="1"/>
<feColorMatrix type="matrix" values="0 0 0 0 0.368627 0 0 0 0 0.423529 0 0 0 0 0.921569 0 0 0 1 0"/>
<feBlend mode="normal" in2="shape" result="effect1_innerShadow_2_263"/>
</filter>
<filter id="filter4_i_2_263" x="31.2128" y="48.6647" width="41.0558" height="29.908" filterUnits="userSpaceOnUse" color-interpolation-filters="sRGB">
<feFlood flood-opacity="0" result="BackgroundImageFix"/>
<feBlend mode="normal" in="SourceGraphic" in2="BackgroundImageFix" result="shape"/>
<feColorMatrix in="SourceAlpha" type="matrix" values="0 0 0 0 0 0 0 0 0 0 0 0 0 0 0 0 0 0 127 0" result="hardAlpha"/>
<feOffset dx="-5" dy="-13"/>
<feGaussianBlur stdDeviation="1.5"/>
<feComposite in2="hardAlpha" operator="arithmetic" k2="-1" k3="1"/>
<feColorMatrix type="matrix" values="0 0 0 0 0.321569 0 0 0 0 0.376471 0 0 0 0 0.866667 0 0 0 0.6 0"/>
<feBlend mode="normal" in2="shape" result="effect1_innerShadow_2_263"/>
</filter>
<filter id="filter5_i_2_263" x="98.0461" y="78.5396" width="45.6891" height="29.1746" filterUnits="userSpaceOnUse" color-interpolation-filters="sRGB">
<feFlood flood-opacity="0" result="BackgroundImageFix"/>
<feBlend mode="normal" in="SourceGraphic" in2="BackgroundImageFix" result="shape"/>
<feColorMatrix in="SourceAlpha" type="matrix" values="0 0 0 0 0 0 0 0 0 0 0 0 0 0 0 0 0 0 127 0" result="hardAlpha"/>
<feOffset dx="-5" dy="-13"/>
<feGaussianBlur stdDeviation="1.5"/>
<feComposite in2="hardAlpha" operator="arithmetic" k2="-1" k3="1"/>
<feColorMatrix type="matrix" values="0 0 0 0 0.321569 0 0 0 0 0.376471 0 0 0 0 0.866667 0 0 0 0.6 0"/>
<feBlend mode="normal" in2="shape" result="effect1_innerShadow_2_263"/>
</filter>
</defs>
</svg>
