<?xml version="1.0" encoding="UTF-8"?>
<!DOCTYPE svg PUBLIC "-//W3C//DTD SVG 1.1//EN" "http://www.w3.org/Graphics/SVG/1.1/DTD/svg11.dtd">
<!-- Creator: CorelDRAW -->
<svg xmlns="http://www.w3.org/2000/svg" xml:space="preserve" width="300mm" height="450mm" version="1.1" style="shape-rendering:geometricPrecision; text-rendering:geometricPrecision; image-rendering:optimizeQuality; fill-rule:evenodd; clip-rule:evenodd"
viewBox="0 0 30000 45000"
 xmlns:xlink="http://www.w3.org/1999/xlink"
 xmlns:xodm="http://www.corel.com/coreldraw/odm/2003">
 <defs>
  <style type="text/css">
   <![CDATA[
    .fil2 {fill:#060606}
    .fil0 {fill:#16161F}
    .fil3 {fill:#434343}
    .fil1 {fill:#6F6F6F}
    .fil4 {fill:#A5A5A5}
    .fil5 {fill:#D2D2D2}
   ]]>
  </style>
 </defs>
 <g id="Слой_x0020_1">
  <metadata id="CorelCorpID_0Corel-Layer"/>
  <path class="fil0" d="M19313.13 22935.48c-81.76,969.72 -395.16,1660.3 -928.95,2380.56 -432.55,583.65 -1214.92,1151.16 -1908.07,1400.93 -1465.64,528.15 -3150.96,297.47 -4309.07,-666.62 -334.63,-278.57 -292.48,-256.08 -562.25,-540.59 -665.52,-701.9 -1219.7,-1978.84 -1094.08,-3298.71 118.32,-1243.11 624.07,-2132.45 1477.27,-2929.38 1546.4,-1444.42 4195.73,-1483.37 5804.61,-47.55 213.47,190.52 251.58,253.71 413.96,418.49 764.7,776.04 1205.48,2109.77 1106.58,3282.87zm-19401.77 22140l30000 0 0 -45000 -30000 0 0 45000z"/>
  <path class="fil1" d="M10767.24 22981.88c-234.42,-2348.25 1663.3,-4372.36 3756.45,-4581.4 2356.14,-235.31 4336.6,1710.79 4549.12,3795.38 235.41,2308.99 -1448.59,4387.49 -3755.96,4574.75 -2309.57,187.44 -4317.91,-1467.69 -4549.61,-3788.73zm9112 0c111.62,-1324.3 -385.85,-2829.94 -1248.9,-3706 -183.26,-186.02 -226.27,-257.35 -467.2,-472.43 -1815.79,-1620.89 -4805.85,-1576.92 -6551.13,53.68 -962.93,899.65 -1533.73,1903.61 -1667.26,3306.95 -141.78,1489.99 483.68,2931.51 1234.79,3723.88 304.46,321.18 256.89,295.79 634.56,610.27 1307.05,1088.35 3209.12,1348.76 4863.25,752.54 782.29,-281.96 1665.28,-922.62 2153.46,-1581.5 602.44,-813.09 956.15,-1592.68 1048.43,-2687.39z"/>
  <path class="fil2" d="M11733.53 21999.83c68,-525.73 335.41,-1026.42 586.22,-1367.07 149.51,-203.07 287.01,-360.34 457.46,-509.15 133.92,-116.93 366.31,-344.69 572.77,-402.08 63.07,-73.93 466.16,-231.54 559.95,-268.59 291.89,-115.31 288.74,-143.03 643.02,-170.13 194.62,-31.46 279.76,-37.62 481.9,-22.72 528.19,-56.05 1223.52,261.49 1571.97,488.4 398.52,259.51 786.77,651.24 1049.63,1061.56 573.11,894.62 702.73,1967.63 335.65,2998.65 -51.93,145.88 -98.28,229.77 -189.79,341.46 -70.49,105.12 -74.29,151.01 -193.43,231.29 86.44,37.51 -11,-15.16 38.16,48.23 -448.12,627.3 -935.46,1086.67 -1676.75,1328.63 -155.42,50.72 -667.82,190.91 -841.62,132.1 -726.66,132.05 -1492.44,-214.6 -1974.76,-553.66 -273.03,-191.94 -478.6,-391.66 -677.46,-618.25 -103.6,-118.05 -478.05,-611.75 -491.25,-814.11 -19.46,-20.22 -18.31,-17.88 -38.04,-50.61l-132.59 -359.09c-189.27,-696.11 -85.12,-896.25 -81.04,-1494.86zm-966.29 982.05c231.7,2321.04 2240.04,3976.17 4549.61,3788.73 2307.37,-187.26 3991.37,-2265.76 3755.96,-4574.75 -212.52,-2084.59 -2192.98,-4030.69 -4549.12,-3795.38 -2093.15,209.04 -3990.87,2233.15 -3756.45,4581.4z"/>
  <path class="fil3" d="M13349.98 19721.53c-14.21,81.57 -125.8,287.75 -157.16,385.97 -125.73,393.88 -117.6,244.4 -231.24,779.75l-87.44 427.12c-29.83,438.79 -41,796.54 49.54,1225.36 83.03,393.22 207.58,618.89 336.36,955.03 221.47,552.82 859.68,1141.04 1390.76,1436.84 262.07,145.96 553.06,235.59 613.22,528.79 44.29,215.88 -67.69,322.8 -135.35,430.02 173.8,58.81 686.2,-81.38 841.62,-132.1 741.29,-241.96 1228.63,-701.33 1676.75,-1328.63 -49.16,-63.39 48.28,-10.72 -38.16,-48.23 -159.71,28.6 -229.47,86.5 -425.06,64.37 -730.16,-82.61 -1606.8,-621.69 -2040.97,-1123.71 -185.02,-213.93 -332.75,-367.1 -497.18,-647.73 -519.13,-886.02 -393.1,-1159.7 -521.78,-1966.21 -30.2,-127.01 56.8,-724.86 95.12,-841.12 102.39,-310.69 79.81,-262.17 214.87,-423.3l119.07 -160.94c-354.28,27.1 -351.13,54.82 -643.02,170.13 -93.79,37.05 -496.88,194.66 -559.95,268.59z"/>
  <path class="fil3" d="M15034.85 19260.09l111.07 71.29c377.62,270.76 235.09,552.8 221.12,958.1 -5.37,155.84 14.4,312.16 12.16,466.56 -44.36,749.9 593.82,1688.42 924.49,1989.18 203.57,185.16 528.82,450.77 837.36,609.06 399.67,205.05 741.55,222.95 661.26,795.88 91.51,-111.69 137.86,-195.58 189.79,-341.46 367.08,-1031.02 237.46,-2104.03 -335.65,-2998.65 -262.86,-410.32 -651.11,-802.05 -1049.63,-1061.56 -348.45,-226.91 -1043.78,-544.45 -1571.97,-488.4z"/>
  <path class="fil4" d="M14123.89 20708.17c128.68,806.51 2.65,1080.19 521.78,1966.21 164.43,280.63 312.16,433.8 497.18,647.73 434.17,502.02 1310.81,1041.1 2040.97,1123.71 195.59,22.13 265.35,-35.77 425.06,-64.37 119.14,-80.28 122.94,-126.17 193.43,-231.29 80.29,-572.93 -261.59,-590.83 -661.26,-795.88 -308.54,-158.29 -633.79,-423.9 -837.36,-609.06 -330.67,-300.76 -968.85,-1239.28 -924.49,-1989.18 -48.86,-99.2 -14.71,-188.71 -59.04,-274.13 -4.71,393.65 10.1,236.65 -77.6,430.87 -67.46,-107.33 -251.53,-44.88 -419.97,-51.96l-457.33 1.62c-2.83,4.97 -5.11,13.04 -6.21,15.99l-44.59 109.38c-87.35,-83.12 -48.91,-3.97 -102.91,-107.46l-87.66 -172.18z"/>
  <path class="fil5" d="M11985.2 23904.39c13.2,202.36 387.65,696.06 491.25,814.11 198.86,226.59 404.43,426.31 677.46,618.25 482.32,339.06 1248.1,685.71 1974.76,553.66 67.66,-107.22 179.64,-214.14 135.35,-430.02 -60.16,-293.2 -351.15,-382.83 -613.22,-528.79 -531.08,-295.8 -1169.29,-884.02 -1390.76,-1436.84 -17.88,20.86 -52.44,-17.09 39.84,146.65 111.25,197.39 195.8,303.18 137.37,495.27l-88.3 -4.5c-5.11,1.17 -20.07,6.4 -25.46,8.16 -236.2,77.15 -116.87,-9.02 -289.6,44.3 -162.78,50.25 62.45,-62.84 -47.13,18.18 -24.84,18.36 -15.34,21.18 -17.51,24.3l-17.14 26.88c-113.57,91.62 37.45,-2.2 -27.3,9.24l-196.95 0.44c5.88,41.77 35.69,106.17 -115.2,127.28l-13.61 -101.88c-15.38,20.36 -55.72,58.72 -55.73,58.73l-32.26 68.55c-178.1,-0.81 -215.13,9.45 -355.58,-215.68 -45.84,-73.48 -55.58,-97.64 -92.67,-189.07 -19.31,-47.6 -49.5,-176.57 -77.61,-107.22z"/>
  <path class="fil4" d="M11733.53 21999.83c-4.08,598.61 -108.23,798.75 81.04,1494.86l132.59 359.09c19.73,32.73 18.58,30.39 38.04,50.61 28.11,-69.35 58.3,59.62 77.61,107.22 37.09,91.43 46.83,115.59 92.67,189.07 140.45,225.13 177.48,214.87 355.58,215.68l32.26 -68.55c0.01,-0.01 40.35,-38.37 55.73,-58.73l13.61 101.88c150.89,-21.11 121.08,-85.51 115.2,-127.28l196.95 -0.44c64.75,-11.44 -86.27,82.38 27.3,-9.24l17.14 -26.88c2.17,-3.12 -7.33,-5.94 17.51,-24.3 109.58,-81.02 -115.65,32.07 47.13,-18.18 172.73,-53.32 53.4,32.85 289.6,-44.3 5.39,-1.76 20.35,-6.99 25.46,-8.16l88.3 4.5c58.43,-192.09 -26.12,-297.88 -137.37,-495.27 -92.28,-163.74 -57.72,-125.79 -39.84,-146.65 -128.78,-336.14 -253.33,-561.81 -336.36,-955.03 -90.54,-428.82 -79.37,-786.57 -49.54,-1225.36 -41.03,31.25 -21.4,1.87 -45.18,85.84l-49.74 833.84c-71.05,20.49 -39.47,2.9 -75.26,51.27 -114.71,-153.19 -158.99,-87.84 -210.44,-61.9l-93 24.35c-79.93,9.32 -47.46,3.53 -110.51,49.69l-236.53 49.63c-251.71,98.01 -273.66,54.64 -269.08,-125.18 0.59,-23.19 3.37,-111.92 -0.8,-129.57 -25.96,-109.83 49.1,-28.84 -50.07,-92.51z"/>
  <path class="fil1" d="M11733.53 21999.83c99.17,63.67 24.11,-17.32 50.07,92.51 4.17,17.65 1.39,106.38 0.8,129.57 -4.58,179.82 17.37,223.19 269.08,125.18l236.53 -49.63c63.05,-46.16 30.58,-40.37 110.51,-49.69l93 -24.35c51.45,-25.94 95.73,-91.29 210.44,61.9 35.79,-48.37 4.21,-30.78 75.26,-51.27l49.74 -833.84c23.78,-83.97 4.15,-54.59 45.18,-85.84l87.44 -427.12c113.64,-535.35 105.51,-385.87 231.24,-779.75 31.36,-98.22 142.95,-304.4 157.16,-385.97 -206.46,57.39 -438.85,285.15 -572.77,402.08 -170.45,148.81 -307.95,306.08 -457.46,509.15 -250.81,340.65 -518.22,841.34 -586.22,1367.07z"/>
  <path class="fil1" d="M14552.95 19282.81l-119.07 160.94c-135.06,161.13 -112.48,112.61 -214.87,423.3 -38.32,116.26 -125.32,714.11 -95.12,841.12l87.66 172.18c54,103.49 15.56,24.34 102.91,107.46l44.59 -109.38c1.1,-2.95 3.38,-11.02 6.21,-15.99l457.33 -1.62c168.44,7.08 352.51,-55.37 419.97,51.96 87.7,-194.22 72.89,-37.22 77.6,-430.87 44.33,85.42 10.18,174.93 59.04,274.13 2.24,-154.4 -17.53,-310.72 -12.16,-466.56 13.97,-405.3 156.5,-687.34 -221.12,-958.1l-111.07 -71.29c-202.14,-14.9 -287.28,-8.74 -481.9,22.72z"/>
 </g>
</svg>
