<?xml version="1.0" encoding="utf-8" ?><svg xmlns="http://www.w3.org/2000/svg" xmlns:xlink="http://www.w3.org/1999/xlink" width="479" height="147" viewBox="0 0 479 147"><path fill="#F9F7F9" d="M234.781 39.7946C245.275 40.6365 259.487 37.652 268.497 43.9938C275.453 48.89 276.381 61.3678 271.154 67.8435C267.126 72.8331 262.251 74.4312 256.185 75.2735C258.158 78.6621 274.912 105.814 274.879 107.053C274.874 107.21 274.593 107.42 274.474 107.535C271.011 108.121 268.707 103.133 267.291 100.705C267.071 100.139 266.769 99.6914 266.454 99.1768C262.804 93.2277 259.297 87.1872 255.693 81.2096C254.689 79.5433 253.405 77.453 252.761 75.6495C247.69 75.4635 242.362 75.8748 237.501 75.6052L237.538 94.7417C237.541 97.3061 238.218 106.336 236.07 107.531C235.489 107.501 235.459 107.595 235.024 107.241C234.467 106.789 234.264 105.938 234.221 105.238C233.952 100.866 233.979 96.4126 233.967 92.0389L233.931 70.6609L233.926 50.8724C233.935 48.4566 233.559 41.2798 234.781 39.7946ZM266.239 68.2964C271.632 63.8844 272.1 53.068 267.625 48.0217C260.896 40.4354 246.558 43.7682 237.579 42.9589C237.026 52.0925 237.829 63.1525 237.463 72.6033C247.39 71.8034 258.031 74.6525 266.239 68.2964Z"/><path fill="#F9F7F9" d="M181.773 102.286C181.762 103.806 181.945 107.658 179.757 107.692C179.333 107.418 179.14 106.901 178.988 106.439C177.892 103.109 178.159 41.4199 178.695 40.3635C179.488 39.7251 184.89 39.861 186.205 39.9033C194.576 40.1458 203.149 38.9915 210.847 43.0064C219.354 47.4429 220.997 60.5945 216.453 68.2704C211.048 77.4026 198.719 77.8787 189.365 77.5892C187.809 77.541 183.69 77.4563 182.301 77.8071L181.968 78.4742C181.301 79.2311 181.529 87.2673 181.637 88.7097C181.941 92.7581 181.162 98.4503 181.773 102.286ZM182.074 74.5718C191.599 74.1665 202.539 76.053 210.589 70.2271C214.111 66.6639 215.16 63.4601 215.2 58.5409C215.359 38.9897 195.133 43.8014 182.494 42.9623C181.585 44.5284 181.994 70.9061 182.074 74.5718Z"/><path fill="#F9F7F9" d="M452.436 39.3788C453.875 39.8561 454.516 40.4982 455.075 41.8835C457.657 48.2728 459.726 54.9081 462.058 61.4035C466.892 74.6734 471.656 87.9687 476.351 101.289C476.828 102.687 478.786 106.569 477.882 107.524C476.877 107.7 474.734 106.736 474.386 105.878C471.414 98.5652 469.396 90.5311 466.563 83.1893C464.218 83.5964 456.74 83.4766 454.125 83.4846C449.177 83.5124 444.228 83.4612 439.281 83.3311C436.856 89.2092 433.934 101.823 430.106 107.124C429.792 107.559 429.009 107.417 428.526 107.357C428.236 106.974 427.943 106.538 428.095 106.027C431.806 93.6258 436.862 80.8183 441.125 68.683L446.702 52.8622C447.944 49.2858 449.882 42.0448 452.436 39.3788ZM440.242 80.2155C444.426 80.1693 448.611 80.1681 452.796 80.2119C456.697 80.2123 461.657 80.3713 465.483 80.2348C464.466 77.2511 452.549 43.4576 453.054 43.9219C451.283 47.5934 450.712 51.3456 449.298 55.0092C446.214 62.9996 443.763 72.441 440.242 80.2155Z"/><path fill="#F9F7F9" d="M368.383 43.2977C367.949 46.5569 368.533 54.7123 368.519 58.8039C368.467 73.7892 368.639 88.8205 368.538 103.81C368.531 104.891 368.619 106.631 367.841 107.376C367.24 107.629 367.075 107.734 366.456 107.578C364.554 105.654 365.182 89.8201 365.185 86.3087L365.175 51.7905C365.17 49.7397 364.832 41.9845 365.723 40.1061C365.913 39.7067 366.864 39.601 367.345 39.5794C368.212 39.5403 370.312 40.0397 370.759 40.8923C372.064 43.3822 373.969 49.523 374.822 51.8466C376.432 56.235 389.665 94.5895 390.727 95.6855C391.426 95.2447 395.235 83.2273 395.803 81.5644C400.168 68.786 404.942 56.1606 409.305 43.3811C410.465 39.9824 411.581 39.2463 415.219 39.7549C415.085 41.4153 415.478 47.5301 415.48 49.865L415.522 79.4875C415.521 88.2563 415.641 97.0247 415.138 105.777C415.118 106.13 415.183 106.718 415.224 107.082C414.637 107.56 413.902 107.612 413.244 107.322C411.523 104.343 413.072 70.1382 412.558 63.444C412.164 58.3072 413.197 48.6864 412.988 43.0459C411.266 46.4044 408.924 54.3745 407.505 58.3405L399.005 81.7268C397.099 87.0585 395.112 92.3967 393.297 97.7621C392.936 98.7257 392.161 99.6551 391.235 100.084C390.104 100.609 388.919 99.7723 388.462 98.7151C385.852 92.6722 383.907 86.3058 381.622 80.1432C378.58 71.9424 375.658 63.7145 372.696 55.4855C371.233 51.4284 369.937 47.2937 368.383 43.2977Z"/><path fill="#F9F7F9" d="M329.036 38.5756C330.911 38.4098 333.464 39.0832 335.339 39.2565C338.422 39.5412 348.305 44.2052 347.543 47.8953C345.638 48.6135 341.953 45.1184 339.884 44.1222C333.625 41.11 324.109 40.7976 318.394 45.4016C316.117 47.2302 314.668 49.8954 314.37 52.8009C312.535 70.4476 340.289 69.3797 347.261 80.3707C357.986 97.2766 342.849 110.608 324.937 108.381C320.381 107.448 307.414 103.073 307.603 97.2781C309.05 95.1883 312.366 99.3612 313.682 100.301C319.967 104.727 325.994 105.858 333.543 105.134C347.109 103.834 352.568 86.8654 340.799 79.2715C333.91 74.8264 325.035 72.6681 317.952 67.9429C310.377 62.8891 308.537 53.044 313.74 45.5641C317.515 40.3662 323.115 39.428 329.036 38.5756Z"/><path fill="#F9F7F9" d="M289.866 39.6065L290.845 39.858C292.098 41.548 291.943 54.7586 291.945 57.568L291.955 75.8916L291.952 92.6943C291.95 95.4612 292.207 105.945 290.902 107.649C288.916 107.374 288.893 106.976 288.797 105C288.434 97.5087 288.561 89.9666 288.56 82.4631L288.57 59.0716C288.574 55.1416 288.116 42.4498 289.866 39.6065Z"/><path fill="#F9F7F9" fill-opacity="0.97254902" d="M415.219 39.7549C415.662 40.8776 415.908 41.892 415.938 43.1037C416.16 52.1649 416.018 61.3196 416.034 70.3954C416.052 81.1977 416.147 92.0418 415.93 102.834C415.906 104.026 415.675 106.009 415.224 107.082C415.183 106.718 415.118 106.13 415.138 105.777C415.641 97.0247 415.521 88.2563 415.522 79.4875L415.48 49.865C415.478 47.5301 415.085 41.4153 415.219 39.7549Z"/><path fill="#F9F7F9" fill-opacity="0.97254902" d="M181.968 78.4742C182.181 80.8185 182.226 100.157 181.773 102.286C181.162 98.4503 181.941 92.7581 181.637 88.7097C181.529 87.2673 181.301 79.2311 181.968 78.4742Z"/><path fill="#22152C" d="M69.609 0L76.1596 0L76.2468 0.0337518C78.489 0.88039 86.1254 1.13429 89.9932 2.10616C106.654 6.29259 119.999 14.7909 130.795 28.2238C131.969 29.685 136.062 35.4817 136.871 37.228C146.174 53.0021 148.614 74.6147 144.093 92.1879C139.132 110.855 127.046 126.83 110.434 136.683C102.144 141.566 92.8955 144.913 83.367 146.222C82.319 146.366 80.8349 146.499 79.9183 147L66.3542 147C65.3466 146.534 60.9292 145.935 59.4773 145.657C54.0374 144.616 44.3118 141.858 39.6861 138.891C39.6337 138.871 39.5814 138.85 39.5294 138.829C37.6443 138.053 33.7731 135.612 32.0577 134.468C19.0739 125.793 9.20854 113.19 3.90654 98.5028C2.59607 94.8341 1.6571 91.0264 0.926892 87.2026C0.690036 85.9623 0.52781 84.6709 0.0306012 83.5033L0 83.433L0 63.79C0.409102 63.2357 0.964464 59.3805 1.17173 58.3844C1.93923 54.871 2.91935 51.4075 4.10668 48.0129C6.1999 42.026 9.71616 35.6398 13.4198 30.4952C20.7068 20.3721 30.4853 12.3032 41.8077 7.0705C43.2612 6.38975 46.3995 4.84918 47.8989 4.60504C52.008 3.10714 56.2436 1.98185 60.5543 1.24278C62.8303 0.875902 67.8212 0.749588 69.609 0Z"/><path fill="#49A26C" d="M125.108 41.692L125.41 41.4099C123.927 37.668 114.501 28.1918 114.338 27.6483L115.202 27.531C115.467 26.9709 115.561 26.671 115.737 26.0747C118.588 24.6679 120.651 23.1875 123.48 21.9422L123.411 21.1467C124.672 21.6234 129.907 28.1534 131.232 29.5223C132.568 30.9017 135.05 36.653 136.871 37.228C146.174 53.0021 148.614 74.6147 144.093 92.1879C139.132 110.855 127.046 126.83 110.434 136.683C102.144 141.566 92.8955 144.913 83.367 146.222C82.319 146.366 80.8349 146.499 79.9183 147L66.3542 147C65.3466 146.534 60.9292 145.935 59.4773 145.657C54.0374 144.616 44.3118 141.858 39.6861 138.891C39.5442 137.739 35.3445 136.842 35.7216 135.174L36.6296 135.075C37.5136 133.373 40.5085 128.404 41.6652 127.19C42.2251 127.252 45.6724 129.292 46.7658 129.801L47.1351 129.602C52.8124 132.064 57.7959 133.896 64.0096 134.727C77.7547 136.568 91.3067 134.618 103.439 127.743C117.55 119.633 127.932 106.329 132.371 90.6707C137.284 72.7997 134.063 57.436 125.108 41.692Z"/><path fill="#396DAC" d="M47.8989 4.60504C49.4348 5.22994 59.9898 0.973408 62.7132 1.53297C63.6554 1.72654 66.0205 0.886469 66.822 1.22887L66.8185 1.67698C65.8051 1.87049 63.9211 2.13934 63.0929 2.61275L62.9646 2.97902C63.4832 3.86211 63.4545 3.86413 64.6761 4.18151C64.7407 4.19836 64.8055 4.21455 64.8705 4.23007L64.8689 4.56668C64.408 4.90241 63.823 5.24502 63.6205 5.75858L63.7873 6.55216L64.1468 6.63247L64.6738 6.06824C65.2519 6.82301 64.3051 8.20882 65.6259 8.75343C66.3246 9.04151 66.2729 9.01542 66.4904 9.67519L66.303 10.2787L65.6425 10.3831C65.4682 10.9057 65.3538 11.6381 64.7927 11.786C61.141 12.7486 56.6304 13.2535 53.1997 14.989L53.2285 15.3394C50.5367 16.6685 47.5485 17.6021 44.928 19.0821C30.9715 26.9027 20.3642 39.566 15.1119 54.6775C10.0961 69.481 10.9551 86.6034 17.907 100.656C22.864 110.534 30.294 118.961 39.4738 125.117C40.9363 126.11 46.572 129.146 47.1351 129.602L46.7658 129.801C45.6724 129.292 42.2251 127.252 41.6652 127.19C40.5085 128.404 37.5136 133.373 36.6296 135.075L35.7216 135.174C35.3445 136.842 39.5442 137.739 39.6861 138.891C39.6337 138.871 39.5814 138.85 39.5294 138.829C37.6443 138.053 33.7731 135.612 32.0577 134.468C19.0739 125.793 9.20854 113.19 3.90654 98.5028C2.59607 94.8341 1.6571 91.0264 0.926892 87.2026C0.690036 85.9623 0.52781 84.6709 0.0306012 83.5033L0 83.433L0 63.79C0.409102 63.2357 0.964464 59.3805 1.17173 58.3844C1.93923 54.871 2.91935 51.4075 4.10668 48.0129C6.1999 42.026 9.71616 35.6398 13.4198 30.4952C20.7068 20.3721 30.4853 12.3032 41.8077 7.0705C43.2612 6.38975 46.3995 4.84918 47.8989 4.60504Z"/><path fill="#14A9A3" d="M69.609 0L76.1596 0L76.2468 0.0337518C78.489 0.88039 86.1254 1.13429 89.9932 2.10616C106.654 6.29259 119.999 14.7909 130.795 28.2238C131.969 29.685 136.062 35.4817 136.871 37.228C135.05 36.653 132.568 30.9017 131.232 29.5223C129.907 28.1534 124.672 21.6234 123.411 21.1467L123.48 21.9422C120.651 23.1875 118.588 24.6679 115.737 26.0747C115.561 26.671 115.467 26.9709 115.202 27.531L114.338 27.6483C114.501 28.1918 123.927 37.668 125.41 41.4099L125.108 41.692C123.356 39.3879 121.876 36.9771 120.025 34.7194C105.929 17.5286 82.9434 7.82286 60.8878 13.1154C58.3191 13.7318 55.7906 14.5246 53.2285 15.3394L53.1997 14.989C56.6304 13.2535 61.141 12.7486 64.7927 11.786C65.3538 11.6381 65.4682 10.9057 65.6425 10.3831L66.303 10.2787L66.4904 9.67519C66.2729 9.01542 66.3246 9.04151 65.6259 8.75343C64.3051 8.20882 65.2519 6.82301 64.6738 6.06824L64.1468 6.63247L63.7873 6.55216L63.6205 5.75858C63.823 5.24502 64.408 4.90241 64.8689 4.56668L64.8705 4.23007C64.8055 4.21455 64.7407 4.19836 64.6761 4.18151C63.4545 3.86413 63.4832 3.86211 62.9646 2.97902L63.0929 2.61275C63.9211 2.13934 65.8051 1.87049 66.8185 1.67698L66.822 1.22887C66.0205 0.886469 63.6554 1.72654 62.7132 1.53297C59.9898 0.973408 49.4348 5.22994 47.8989 4.60504C52.008 3.10714 56.2436 1.98185 60.5543 1.24278C62.8303 0.875902 67.8212 0.749588 69.609 0Z"/><path fill="#4B3964" d="M65.5198 27.5178C68.3344 24.2742 71.9841 23.5498 75.9073 25.4104C77.4283 24.3879 79.7257 24.8973 81.4233 25.2352C107.742 30.4735 125.997 58.1635 120.05 84.4736C119.449 87.1326 117.946 93.2729 115.951 95.0741C114.989 97.2811 114.52 98.1812 112.732 99.8653C112.823 101.628 109.401 105.321 108.185 106.705C100.372 115.597 90.0936 121.083 78.2671 122.137C77.576 122.198 77.1229 122.032 76.5282 121.698C71.8328 125.298 54.6412 119.137 50.2179 115.859C47.3872 114.611 42.261 110.229 40.0429 108C30.9035 98.9695 25.7579 86.6574 25.7536 73.8091C25.5795 70.63 26.2638 65.1149 27.0622 62.0435C30.5642 48.5713 38.273 38.6982 49.942 31.5196L50.02 31.4303C51.2855 31.1254 53.3565 29.651 54.699 29.1334C56.8838 28.2912 63.5503 25.2122 65.5529 26.3706C65.4374 26.8367 65.4339 26.9269 65.5024 27.4019L65.5198 27.5178Z"/><path fill="#27665D" d="M75.9073 25.4104C77.4283 24.3879 79.7257 24.8973 81.4233 25.2352C107.742 30.4735 125.997 58.1635 120.05 84.4736C119.449 87.1326 117.946 93.2729 115.951 95.0741C115.254 90.9571 114.996 89.4966 110.964 87.4999C107.698 85.8829 104.246 84.1036 101.175 82.1494C97.222 79.6334 93.8481 76.3054 90.5546 73.0058C90.431 72.6343 87.5798 69.0644 87.0947 68.2606C82.8826 61.2816 80.7875 55.6972 79.9784 47.6556C79.508 41.929 80.026 36.9716 80.0125 31.3142C80.0066 28.8659 77.6908 26.952 75.9073 25.4104Z"/><path fill="#79A7F5" d="M49.942 31.5196C50.011 32.7019 46.9836 38.7139 46.3523 40.7694C42.9467 51.8576 42.1489 59.9244 43.546 71.3128C46.1649 84.4888 52.0071 95.5337 62.6189 103.51C62.8417 103.677 63.6827 104.342 63.8424 104.53C65.4075 105.586 67.4822 107.066 69.1503 107.898C73.8072 110.222 81.6369 114.383 77.1728 120.81C76.9632 121.11 76.7483 121.406 76.5282 121.698C71.8328 125.298 54.6412 119.137 50.2179 115.859C47.3872 114.611 42.261 110.229 40.0429 108C30.9035 98.9695 25.7579 86.6574 25.7536 73.8091C25.5795 70.63 26.2638 65.1149 27.0622 62.0435C30.5642 48.5713 38.273 38.6982 49.942 31.5196Z"/><path fill="#398DFC" d="M49.942 31.5196C50.011 32.7019 46.9836 38.7139 46.3523 40.7694C42.9467 51.8576 42.1489 59.9244 43.546 71.3128C41.0309 68.3524 43.4214 51.2228 42.9202 50.4614C42.4489 50.4766 42.3239 50.5985 41.9459 50.8552C40.53 50.6423 33.2547 49.5755 32.376 50.7373C28.4861 55.8808 27.0979 63.4123 26.4461 69.7072C26.278 71.3299 26.6112 72.322 25.7536 73.8091C25.5795 70.63 26.2638 65.1149 27.0622 62.0435C30.5642 48.5713 38.273 38.6982 49.942 31.5196Z"/><path fill="#9FD3CC" d="M63.8424 104.53C65.4075 105.586 67.4822 107.066 69.1503 107.898C73.8072 110.222 81.6369 114.383 77.1728 120.81C76.9632 121.11 76.7483 121.406 76.5282 121.698C71.8328 125.298 54.6412 119.137 50.2179 115.859L50.2334 115.563C50.438 115.575 53.1223 117.038 53.562 117.257C58.2577 119.598 63.5226 121.346 68.7235 122.021C72.1584 122.467 74.0474 121.992 74.6848 118.399C74.7205 118.198 75.0128 116.903 75.0877 116.856C75.534 116.577 76.3505 115.955 76.7897 115.612C78.5692 111.217 64.9358 107.834 63.8424 104.53Z"/><path fill="#3FD6E8" d="M65.5198 27.5178C68.3344 24.2742 71.9841 23.5498 75.9073 25.4104C77.6908 26.952 80.0066 28.8659 80.0125 31.3142C80.026 36.9716 79.508 41.929 79.9784 47.6556C80.7875 55.6972 82.8826 61.2816 87.0947 68.2606C87.5798 69.0644 90.431 72.6343 90.5546 73.0058C90.7802 74.4822 93.4105 76.8738 94.6224 77.5695C100.348 80.8564 93.6514 84.1104 91.1011 86.5375C89.9222 87.6596 88.4435 91.4538 86.917 91.7467C83.409 91.7 77.0397 83.2344 74.9905 82.5811C74.9117 82.5224 74.757 82.4018 74.6955 82.3347C67.4309 74.4086 61.9776 61.7497 61.7258 51.1223C61.4797 50.0419 61.4271 47.57 61.4401 46.4169C61.5193 39.3901 62.1094 33.6749 65.5198 27.5178Z"/><path fill="#24ACE4" d="M65.5198 27.5178C68.3344 24.2742 71.9841 23.5498 75.9073 25.4104C77.6908 26.952 80.0066 28.8659 80.0125 31.3142C80.026 36.9716 79.508 41.929 79.9784 47.6556C78.4996 43.579 79.598 41.9135 79.0329 39.5001C78.6882 39.8857 78.2268 40.5621 77.7463 40.5231C75.3963 40.3323 73.7458 39.837 71.3769 40.1611C69.5723 40.4079 66.7209 41.8738 65.2125 41.6318C64.5993 42.0044 63.1141 43.0275 62.5101 42.9917L62.3288 42.5005L62.1289 42.5334C62.0415 45.8283 61.9678 47.8447 61.7258 51.1223C61.4797 50.0419 61.4271 47.57 61.4401 46.4169C61.5193 39.3901 62.1094 33.6749 65.5198 27.5178Z"/><defs><linearGradient id="gradient_0" gradientUnits="userSpaceOnUse" x1="110.78342" y1="100.95243" x2="92.941254" y2="84.424286"><stop offset="0" stop-color="#8DFC7E"/><stop offset="1" stop-color="#5DE6C5"/></linearGradient></defs><path fill="url(#gradient_0)" d="M90.5546 73.0058C93.8481 76.3054 97.222 79.6334 101.175 82.1494C104.246 84.1036 107.698 85.8829 110.964 87.4999C114.996 89.4966 115.254 90.9571 115.951 95.0741C114.989 97.2811 114.52 98.1812 112.732 99.8653C101.056 104.199 81.9051 91.2874 74.9905 82.5811C77.0397 83.2344 83.409 91.7 86.917 91.7467C88.4435 91.4538 89.9222 87.6596 91.1011 86.5375C93.6514 84.1104 100.348 80.8564 94.6224 77.5695C93.4105 76.8738 90.7802 74.4822 90.5546 73.0058Z"/></svg>