<?xml version="1.0" standalone="no"?>
<!DOCTYPE svg PUBLIC "-//W3C//DTD SVG 20010904//EN"
 "http://www.w3.org/TR/2001/REC-SVG-20010904/DTD/svg10.dtd">
<svg version="1.0" xmlns="http://www.w3.org/2000/svg"
 width="630.000000pt" height="630.000000pt" viewBox="0 0 630.000000 630.000000"
 preserveAspectRatio="xMidYMid meet">

<g transform="translate(0.000000,630.000000) scale(0.100000,-0.100000)"
fill="#fff" stroke="none">
<path d="M2885 6250 c-623 -61 -1196 -290 -1675 -670 -135 -107 -383 -355
-490 -490 -353 -445 -575 -969 -656 -1550 -25 -175 -25 -604 0 -779 27 -197
69 -384 122 -552 l25 -79 756 2 756 3 228 395 c126 217 230 399 232 404 3 8
51 -1 179 -35 l37 -9 -185 -376 c-101 -207 -184 -378 -184 -380 0 -2 461 -4
1024 -4 l1025 0 -89 152 c-48 84 -85 154 -82 155 4 2 58 -14 121 -35 l113 -37
67 -115 66 -115 907 -3 907 -2 25 79 c53 168 95 355 122 552 25 175 25 604 0
779 -81 581 -303 1105 -656 1550 -107 135 -355 383 -490 490 -443 352 -972
576 -1545 655 -131 18 -532 27 -660 15z m2092 -1995 c-3 -6 -421 -319 -930
-695 -509 -377 -924 -687 -922 -688 2 -2 418 269 924 602 506 333 923 606 926
606 3 0 5 -47 5 -104 l0 -104 -930 -511 c-512 -282 -935 -509 -940 -506 -5 3
-7 -4 -5 -15 3 -14 0 -20 -8 -17 -7 3 -11 10 -9 16 1 7 -2 9 -9 5 -17 -10 26
-44 55 -44 24 0 1764 197 1814 205 l32 6 0 -91 0 -90 -32 0 c-139 2 -1834 -45
-1838 -50 -11 -14 -56 -18 -82 -7 -27 12 -9 27 960 856 l987 844 3 -103 c1
-57 1 -109 -1 -115z m-1687 -412 c157 -272 285 -498 285 -502 0 -8 -150 -141
-159 -141 -3 0 -111 158 -240 350 l-233 351 -141 -243 c-77 -134 -183 -330
-236 -435 -53 -106 -99 -193 -102 -193 -18 0 -184 65 -182 72 7 19 714 1238
718 1237 3 0 133 -223 290 -496z m1690 -226 l0 -93 -931 -348 c-512 -191 -932
-346 -934 -344 -5 4 1835 875 1853 877 9 1 12 -24 12 -92z m-2870 -507 c421
-155 778 -287 793 -292 15 -6 27 -12 25 -13 -2 -2 -363 88 -803 199 l-800 203
-3 98 c-2 76 0 96 10 93 7 -3 357 -132 778 -288z m2863 70 c-10 -9 -1852 -374
-1858 -369 -2 3 416 126 928 275 l932 272 3 -86 c2 -47 -1 -88 -5 -92z m-918
-460 c473 -28 875 -53 893 -56 l32 -5 0 -86 0 -86 -37 6 c-21 3 -434 65 -918
137 -484 72 -887 132 -895 134 -44 11 142 2 925 -44z m-948 34 c-3 -3 -12 -4
-19 -1 -8 3 -5 6 6 6 11 1 17 -2 13 -5z m953 -218 l915 -212 3 -92 3 -91 -103
34 c-57 19 -474 154 -928 301 -454 146 -827 268 -829 270 -11 10 84 -11 939
-210z"/>
<path d="M3060 2806 c0 -11 8 -16 28 -15 15 0 21 3 12 6 -8 3 -21 10 -27 16
-9 7 -13 5 -13 -7z"/>
<path d="M2980 3966 c-12 -23 -1 -42 193 -335 114 -171 209 -311 212 -311 7 0
13 -10 -200 358 -99 172 -183 312 -186 312 -3 0 -11 -11 -19 -24z"/>
<path d="M2120 2477 c-80 -138 -157 -273 -173 -299 l-27 -48 27 0 c27 0 35 15
176 296 81 163 147 298 145 299 -2 2 -68 -110 -148 -248z"/>
<path d="M1272 1518 l3 -343 27 -3 c34 -4 37 7 41 153 l2 110 143 5 144 5 34
37 34 38 0 130 c0 203 -9 210 -260 210 l-170 0 2 -342z m338 252 c17 -17 20
-33 20 -119 0 -96 -1 -100 -26 -120 -23 -18 -41 -21 -133 -21 -70 0 -111 4
-119 12 -13 13 -18 249 -5 261 3 4 60 7 125 7 105 0 120 -2 138 -20z"/>
<path d="M1952 1518 l3 -343 28 -3 c15 -2 28 -2 29 0 1 2 4 86 7 187 6 199 10
211 62 198 18 -5 48 -49 127 -186 57 -99 109 -185 117 -191 8 -6 22 -10 32 -8
39 7 26 48 -67 209 -50 88 -88 164 -85 169 3 6 24 10 46 10 48 0 90 20 113 54
22 35 22 157 0 192 -32 48 -59 54 -244 54 l-170 0 2 -342z m338 252 c27 -27
27 -93 0 -120 -19 -19 -31 -20 -143 -18 l-122 3 -3 64 c-2 35 -1 70 2 77 4 11
34 14 126 14 107 0 122 -2 140 -20z"/>
<path d="M2634 1846 c-3 -8 -4 -23 -2 -33 3 -15 16 -19 88 -23 l85 -5 0 -270
0 -270 -85 -5 -85 -5 0 -30 0 -30 210 0 210 0 0 30 0 30 -85 5 -85 5 0 270 0
270 85 5 85 5 0 30 0 30 -208 3 c-175 2 -208 0 -213 -12z"/>
<path d="M3335 1835 c-18 -17 -25 -35 -25 -63 0 -36 17 -61 180 -272 144 -186
178 -235 169 -246 -8 -10 -40 -14 -123 -14 -122 0 -149 9 -160 55 -5 21 -12
26 -34 23 -23 -3 -27 -8 -30 -41 -3 -32 2 -43 31 -72 l35 -35 154 0 154 0 27
28 c20 20 27 38 27 66 0 34 -19 62 -179 268 -101 130 -177 237 -174 244 4 11
34 14 127 14 66 0 126 -4 132 -8 6 -4 17 -20 25 -37 10 -21 21 -30 39 -30 22
0 25 5 28 39 3 32 -2 44 -29 72 l-33 34 -158 0 c-155 0 -159 -1 -183 -25z"/>
<path d="M3992 1518 l3 -343 24 -3 c13 -2 28 2 32 10 5 7 9 133 9 280 0 157 4
269 9 273 14 8 92 -99 100 -138 6 -27 11 -32 36 -32 25 0 30 5 36 32 8 40 88
148 100 136 5 -5 10 -130 11 -277 3 -235 5 -270 19 -279 9 -6 24 -7 33 -4 14
6 16 41 16 347 l0 340 -49 0 -50 0 -53 -75 c-29 -41 -57 -74 -63 -74 -5 0 -33
32 -60 72 l-51 72 -52 3 -52 3 2 -343z"/>
<path d="M4855 1850 c-15 -25 -185 -628 -183 -650 2 -18 10 -26 27 -28 28 -4
36 6 57 78 9 30 21 61 26 68 7 8 41 12 103 12 62 0 96 -4 103 -12 5 -7 17 -38
27 -70 9 -31 22 -62 30 -68 21 -17 50 -8 53 17 3 20 -154 583 -178 641 -10 23
-53 31 -65 12z m78 -322 c19 -64 32 -119 29 -122 -7 -8 -147 -8 -154 -1 -4 5
47 192 67 243 10 26 22 2 58 -120z"/>
<path d="M1075 833 c334 -300 793 -553 1222 -673 308 -87 513 -114 853 -114
340 0 545 27 853 114 429 120 888 373 1222 673 l40 36 -2115 0 -2115 0 40 -36z"/>
</g>
</svg>
